M48
; DRILL file {KiCad (5.99.0-10952-g410dbe17de)} date Wed Jun 16 22:03:22 2021
; FORMAT={-:-/ absolute / inch / decimal}
; #@! TF.CreationDate,2021-06-16T22:03:22+02:00
; #@! TF.GenerationSoftware,Kicad,Pcbnew,(5.99.0-10952-g410dbe17de)
; #@! TF.FileFunction,MixedPlating,1,6
FMAT,2
INCH
; #@! TA.AperFunction,Plated,PTH,ComponentDrill
T1C0.0236
; #@! TA.AperFunction,Plated,PTH,ComponentDrill
T2C0.0256
; #@! TA.AperFunction,Plated,PTH,ComponentDrill
T3C0.0276
; #@! TA.AperFunction,Plated,PTH,ComponentDrill
T4C0.0394
; #@! TA.AperFunction,NonPlated,NPTH,ComponentDrill
T5C0.0197
; #@! TA.AperFunction,NonPlated,NPTH,ComponentDrill
T6C0.0236
%
G90
G05
T2
X0.3626Y0.1366
X0.3626Y0.0866
X0.3626Y0.0366
X0.4126Y0.1366
X0.4126Y0.0866
X0.4126Y0.0366
T4
X0.05Y1.95
X0.05Y1.85
X0.05Y1.75
X0.05Y1.65
X0.05Y1.55
X0.05Y1.45
X0.05Y1.35
X0.05Y1.25
X0.05Y1.15
X0.05Y1.05
X0.05Y0.95
X0.05Y0.85
X0.05Y0.75
X0.05Y0.65
X0.05Y0.55
X0.05Y0.45
X0.05Y0.35
X0.05Y0.25
X0.05Y0.15
X0.05Y0.05
X0.15Y1.95
X0.15Y1.85
X0.15Y1.75
X0.15Y1.65
X0.15Y1.55
X0.15Y1.45
X0.15Y1.35
X0.15Y1.25
X0.15Y1.15
X0.15Y1.05
X0.15Y0.95
X0.15Y0.85
X0.15Y0.75
X0.15Y0.65
X0.15Y0.55
X0.15Y0.45
X0.15Y0.35
X0.15Y0.25
X0.15Y0.15
X0.15Y0.05
X0.25Y1.95
X0.25Y1.85
X0.25Y1.75
X0.25Y1.65
X0.25Y1.55
X0.25Y1.45
X0.25Y1.35
X0.25Y1.25
X0.25Y1.15
X0.25Y1.05
X0.25Y0.95
X0.25Y0.85
X0.25Y0.75
X0.25Y0.65
X0.25Y0.55
X0.25Y0.45
X0.25Y0.35
X0.25Y0.25
X0.25Y0.15
X0.25Y0.05
X0.85Y1.95
X0.85Y1.85
X0.85Y1.75
X0.85Y1.65
X0.85Y1.55
X0.85Y1.45
X0.85Y1.35
X0.85Y1.25
X0.85Y1.15
X0.85Y1.05
X0.85Y0.95
X0.85Y0.85
X0.85Y0.75
X0.85Y0.65
X0.85Y0.55
X0.85Y0.45
X0.85Y0.35
X0.85Y0.25
X0.85Y0.15
X0.85Y0.05
X0.95Y1.95
X0.95Y1.85
X0.95Y1.75
X0.95Y1.65
X0.95Y1.55
X0.95Y1.45
X0.95Y1.35
X0.95Y1.25
X0.95Y1.15
X0.95Y1.05
X0.95Y0.95
X0.95Y0.85
X0.95Y0.75
X0.95Y0.65
X0.95Y0.55
X0.95Y0.45
X0.95Y0.35
X0.95Y0.25
X0.95Y0.15
X0.95Y0.05
T6
X0.6917Y1.8091
T1
G00X0.3799Y1.7047
M15
G01X0.3799Y1.7559
M16
G05
G00X0.7201Y1.7047
M15
G01X0.7201Y1.7559
M16
G05
T3
G00X0.3799Y1.9035
M15
G01X0.3799Y1.9547
M16
G05
G00X0.7201Y1.9035
M15
G01X0.7201Y1.9547
M16
G05
T5
G00X0.4152Y1.8065
M15
G01X0.4014Y1.8065
M16
G05
T0
M30
