M48
; DRILL file {KiCad (5.99.0-10952-g410dbe17de)} date Wed Jun 16 22:03:22 2021
; FORMAT={-:-/ absolute / inch / decimal}
; #@! TF.CreationDate,2021-06-16T22:03:22+02:00
; #@! TF.GenerationSoftware,Kicad,Pcbnew,(5.99.0-10952-g410dbe17de)
; #@! TF.FileFunction,Plated,2,5,Buried
FMAT,2
INCH
; #@! TA.AperFunction,Plated,Buried,ViaDrill
T1C0.0059
%
G90
G05
T1
X0.2Y0.4209
X0.2213Y0.3996
X0.322Y0.2362
X0.3283Y1.4555
X0.3283Y1.4425
X0.3283Y1.4299
X0.3346Y1.5567
X0.3346Y0.8098
X0.3354Y0.8366
X0.3358Y0.6933
X0.3374Y0.5303
X0.3374Y0.5106
X0.3374Y0.4909
X0.3374Y0.4713
X0.3374Y0.4516
X0.3374Y0.4319
X0.3406Y1.5906
X0.35Y0.7075
X0.3504Y1.5055
X0.3531Y0.9654
X0.3602Y0.937
X0.3614Y0.2362
X0.3622Y0.7996
X0.363Y0.8366
X0.3642Y0.7217
X0.3646Y1.4583
X0.3697Y0.9197
X0.3705Y0.9933
X0.3728Y0.9638
X0.376Y0.8583
X0.3783Y0.7358
X0.3925Y0.9862
X0.3925Y0.75
X0.3925Y0.6909
X0.3949Y1.628
X0.4024Y0.6398
X0.4024Y0.6201
X0.4024Y0.6004
X0.4102Y0.7697
X0.4122Y0.9862
X0.4122Y0.75
X0.4122Y0.7106
X0.4122Y0.6909
X0.4161Y1.0382
X0.4173Y0.6531
X0.4181Y1.1433
X0.4181Y1.1236
X0.4181Y1.1039
X0.4319Y1.05
X0.4319Y0.9665
X0.4319Y0.9173
X0.4319Y0.5303
X0.4319Y0.5106
X0.4319Y0.4909
X0.4319Y0.4713
X0.4319Y0.4516
X0.4319Y0.4319
X0.437Y1.5787
X0.439Y0.6543
X0.4417Y0.8189
X0.4417Y0.7992
X0.4476Y0.3421
X0.4516Y0.9272
X0.4516Y0.8484
X0.4516Y0.7795
X0.4524Y1.7606
X0.4543Y0.6839
X0.4559Y0.6181
X0.4563Y1.7173
X0.4563Y1.6976
X0.4594Y1.6346
X0.4594Y1.474
X0.4614Y0.8976
X0.4614Y0.7402
X0.4634Y1.05
X0.4661Y1.7799
X0.4756Y1.6102
X0.476Y1.7173
X0.476Y1.6976
X0.4791Y1.0382
X0.4795Y1.585
X0.4807Y0.2854
X0.4811Y1.8335
X0.4811Y0.9173
X0.4819Y0.7154
X0.4819Y0.6953
X0.4846Y1.8563
X0.4846Y1.8106
X0.4858Y1.765
X0.4858Y0.2626
X0.4862Y0.6724
X0.4949Y1.05
X0.5Y0.0319
X0.5008Y0.8555
X0.5008Y0.8374
X0.5008Y0.8004
X0.502Y0.6567
X0.5063Y1.8563
X0.5063Y1.8106
X0.5106Y1.3445
X0.5106Y1.0382
X0.5106Y0.7303
X0.5193Y0.9713
X0.5205Y0.9173
X0.5205Y0.8555
X0.5205Y0.8374
X0.5205Y0.8004
X0.5205Y0.7823
X0.526Y1.1591
X0.526Y1.1315
X0.526Y1.1039
X0.5264Y1.6327
X0.5264Y1.05
X0.528Y1.8563
X0.528Y1.8106
X0.5303Y0.7205
X0.5358Y1.3961
X0.5358Y0.2886
X0.5402Y1.1728
X0.5402Y1.1453
X0.5402Y1.1177
X0.5421Y1.0815
X0.5421Y1.0618
X0.5421Y0.5106
X0.5421Y0.4909
X0.5421Y0.4713
X0.5421Y0.4516
X0.5421Y0.4319
X0.5421Y0.4122
X0.55Y1.6327
X0.55Y1.5941
X0.55Y1.5831
X0.55Y0.8555
X0.55Y0.7823
X0.55Y0.7008
X0.5559Y0.8374
X0.5559Y0.8004
X0.5598Y0.9173
X0.5598Y0.7205
X0.5681Y1.0071
X0.5713Y0.1382
X0.5724Y0.265
X0.5724Y0.2189
X0.5736Y1.6327
X0.5795Y0.8374
X0.5795Y0.8004
X0.5795Y0.7823
X0.5862Y0.652
X0.5878Y1.0071
X0.5898Y0.0319
X0.5992Y0.9173
X0.5992Y0.7205
X0.6012Y1.5496
X0.6059Y1.8012
X0.6067Y1.652
X0.6118Y0.2445
X0.6118Y0.1886
X0.6138Y1.7173
X0.6138Y1.6976
X0.6217Y1.6197
X0.6236Y1.772
X0.6248Y0.9732
X0.6248Y0.9469
X0.6248Y0.9272
X0.628Y0.0437
X0.6335Y1.7173
X0.6335Y1.6976
X0.6354Y1.8484
X0.6429Y1.7768
X0.6433Y1.7571
X0.6484Y0.8976
X0.6492Y0.7394
X0.6583Y0.878
X0.6583Y0.7598
X0.6681Y0.8484
X0.6681Y0.7894
X0.676Y1.4354
X0.6878Y0.8287
X0.6878Y0.8091
X0.6906Y0.0598
X0.7071Y0.7673
X0.7075Y0.7894
X0.7114Y0.672
X0.7295Y0.2846
X0.7343Y1.0189
X0.7343Y0.9835
X0.7346Y1.6039
X0.7346Y1.5295
X0.748Y1.5295
X0.7496Y1.3685
X0.7496Y1.3488
X0.75Y1.4642
X0.7512Y0.1472
X0.752Y1.3972
X0.7575Y0.8492
X0.7575Y0.8217
X0.7575Y0.7941
X0.7575Y0.7665
X0.7575Y0.739
X0.7575Y0.7114
X0.7606Y0.8709
X0.7614Y1.5295
X0.7654Y1.3972
X0.7665Y1.4433
X0.7717Y0.8354
X0.7717Y0.8079
X0.7717Y0.7803
X0.7717Y0.7528
X0.7717Y0.7252
X0.7717Y0.6976
X0.7728Y0.2772
X0.7787Y1.3972
X0.7819Y0.9213
X0.7819Y0.8937
X0.7819Y0.8661
X0.7949Y1.5346
X0.7949Y1.4795
X0.7961Y0.935
X0.7961Y0.9075
X0.7961Y0.8799
T0
M30
