M48
; DRILL file {KiCad (5.99.0-10952-g410dbe17de)} date Wed Jun 16 22:03:22 2021
; FORMAT={-:-/ absolute / inch / decimal}
; #@! TF.CreationDate,2021-06-16T22:03:22+02:00
; #@! TF.GenerationSoftware,Kicad,Pcbnew,(5.99.0-10952-g410dbe17de)
; #@! TF.FileFunction,Plated,1,2,Blind
FMAT,2
INCH
; #@! TA.AperFunction,Plated,Buried,ViaDrill
T1C0.0039
%
G90
G05
T1
X0.3169Y1.5449
X0.3173Y1.6402
X0.3209Y1.5276
X0.3213Y1.6575
X0.322Y0.2724
X0.322Y0.2094
X0.3346Y0.8197
X0.3374Y0.6122
X0.3378Y1.5228
X0.3382Y1.6622
X0.3402Y1.4555
X0.3402Y1.4425
X0.3402Y1.4299
X0.3406Y0.7106
X0.3476Y0.6843
X0.3547Y0.7248
X0.3622Y0.8197
X0.3689Y0.739
X0.3728Y0.9764
X0.3728Y0.937
X0.3728Y0.878
X0.3728Y0.7008
X0.3728Y0.6614
X0.3925Y0.9961
X0.3925Y0.9567
X0.3925Y0.937
X0.3925Y0.9173
X0.3925Y0.878
X0.3925Y0.8583
X0.3925Y0.8386
X0.3925Y0.8189
X0.3925Y0.7992
X0.3925Y0.7795
X0.3925Y0.7205
X0.3925Y0.6811
X0.3925Y0.6614
X0.3925Y0.6417
X0.3929Y0.2362
X0.3949Y1.6402
X0.4122Y0.9764
X0.4122Y0.9567
X0.4122Y0.937
X0.4122Y0.9173
X0.4122Y0.8976
X0.4122Y0.878
X0.4122Y0.8583
X0.4122Y0.8386
X0.4122Y0.7992
X0.4122Y0.7795
X0.4122Y0.7402
X0.4122Y0.6811
X0.4122Y0.6614
X0.4169Y1.6118
X0.4169Y1.5732
X0.4319Y0.9764
X0.4319Y0.8189
X0.4319Y0.7205
X0.4319Y0.7008
X0.4319Y0.6811
X0.4319Y0.6614
X0.4476Y0.3051
X0.4516Y0.937
X0.4516Y0.8976
X0.4516Y0.878
X0.4516Y0.8583
X0.4516Y0.8386
X0.4516Y0.8189
X0.4516Y0.7992
X0.4516Y0.7598
X0.4516Y0.7402
X0.4563Y1.7272
X0.4661Y1.7433
X0.4673Y0.7091
X0.4713Y0.9173
X0.4713Y0.8976
X0.4713Y0.878
X0.4713Y0.8583
X0.4713Y0.8386
X0.4713Y0.7992
X0.4713Y0.7795
X0.4713Y0.7598
X0.4713Y0.7402
X0.4713Y0.6811
X0.476Y1.7272
X0.4791Y1.2579
X0.4791Y1.1004
X0.4791Y0.6378
X0.4807Y0.3004
X0.4858Y1.7433
X0.4882Y0.0319
X0.4909Y0.9567
X0.4909Y0.9173
X0.4909Y0.8976
X0.4909Y0.878
X0.4909Y0.8583
X0.4909Y0.8386
X0.4909Y0.7992
X0.4909Y0.7795
X0.4909Y0.7598
X0.4909Y0.7402
X0.4909Y0.6811
X0.4921Y0.6429
X0.4957Y1.6118
X0.5059Y0.3004
X0.5063Y1.5945
X0.5063Y1.4606
X0.5106Y1.3327
X0.5106Y0.9764
X0.5106Y0.9567
X0.5106Y0.937
X0.5106Y0.9173
X0.5106Y0.8976
X0.5106Y0.878
X0.5106Y0.8583
X0.5106Y0.8386
X0.5106Y0.7992
X0.5106Y0.7795
X0.5106Y0.7598
X0.5106Y0.7402
X0.5106Y0.7008
X0.5118Y1.5717
X0.5118Y1.4378
X0.5197Y1.7433
X0.5217Y1.7272
X0.524Y0.1382
X0.5303Y0.9567
X0.5303Y0.8976
X0.5303Y0.878
X0.5303Y0.8583
X0.5303Y0.8386
X0.5303Y0.7992
X0.5303Y0.7795
X0.5303Y0.7598
X0.5303Y0.7402
X0.5303Y0.7008
X0.5303Y0.6811
X0.5346Y1.5669
X0.5346Y1.4331
X0.5358Y0.3004
X0.539Y1.7272
X0.5449Y1.7433
X0.55Y0.9567
X0.55Y0.9173
X0.55Y0.7205
X0.55Y0.6811
X0.561Y0.3004
X0.5634Y1.5335
X0.5634Y1.3996
X0.5646Y1.7433
X0.5654Y1.6051
X0.5654Y1.4713
X0.5697Y0.9567
X0.5697Y0.937
X0.5697Y0.9173
X0.5697Y0.8976
X0.5697Y0.878
X0.5697Y0.8583
X0.5697Y0.8386
X0.5697Y0.7992
X0.5697Y0.7795
X0.5697Y0.7598
X0.5697Y0.7402
X0.5697Y0.7205
X0.5697Y0.6811
X0.578Y0.2543
X0.578Y0.0319
X0.5787Y1.7433
X0.5803Y1.7272
X0.5831Y0.1815
X0.5831Y0.1382
X0.5831Y0.0909
X0.5882Y0.2346
X0.5894Y0.9567
X0.5894Y0.937
X0.5894Y0.9173
X0.5894Y0.8976
X0.5894Y0.878
X0.5894Y0.8583
X0.5894Y0.8386
X0.5894Y0.7992
X0.5894Y0.7795
X0.5894Y0.7598
X0.5894Y0.7402
X0.5894Y0.7205
X0.5894Y0.7008
X0.5894Y0.6811
X0.5894Y0.6614
X0.5894Y0.3051
X0.6039Y1.5835
X0.6039Y1.4496
X0.6091Y0.9764
X0.6091Y0.9567
X0.6091Y0.9173
X0.6091Y0.8976
X0.6091Y0.878
X0.6091Y0.8583
X0.6091Y0.8386
X0.6091Y0.7992
X0.6091Y0.7795
X0.6091Y0.7598
X0.6091Y0.7402
X0.6091Y0.7205
X0.6091Y0.7008
X0.6091Y0.6811
X0.6138Y1.7272
X0.6177Y1.5835
X0.6177Y1.4496
X0.6209Y0.5291
X0.6209Y0.3799
X0.6236Y1.7433
X0.628Y0.0319
X0.6287Y0.9567
X0.6287Y0.9173
X0.6287Y0.8976
X0.6287Y0.878
X0.6287Y0.8583
X0.6287Y0.8386
X0.6287Y0.7992
X0.6287Y0.7795
X0.6287Y0.7598
X0.6287Y0.7402
X0.6287Y0.7205
X0.6287Y0.7008
X0.6287Y0.6811
X0.6299Y0.2827
X0.6315Y1.5835
X0.6315Y1.4496
X0.6335Y1.7272
X0.6382Y0.2445
X0.6421Y0.1382
X0.6433Y1.7433
X0.6484Y0.878
X0.6484Y0.8583
X0.6484Y0.8386
X0.6484Y0.7992
X0.6484Y0.7795
X0.6484Y0.7598
X0.6524Y1.3327
X0.6524Y1.1004
X0.6681Y0.9567
X0.6681Y0.937
X0.6681Y0.8976
X0.6681Y0.8583
X0.6681Y0.8386
X0.6681Y0.7992
X0.6681Y0.7795
X0.6681Y0.7402
X0.6681Y0.7008
X0.6681Y0.6811
X0.678Y0.0319
X0.6874Y1.5453
X0.6874Y1.4114
X0.6878Y0.9764
X0.6878Y0.9567
X0.6878Y0.937
X0.6878Y0.8583
X0.6878Y0.8386
X0.6878Y0.7992
X0.6878Y0.7795
X0.6878Y0.7598
X0.6878Y0.7402
X0.6878Y0.7008
X0.6878Y0.6811
X0.7008Y1.5453
X0.7008Y1.4114
X0.7043Y0.3004
X0.7075Y0.9764
X0.7075Y0.9567
X0.7075Y0.937
X0.7075Y0.8583
X0.7075Y0.7992
X0.7075Y0.7008
X0.7075Y0.6811
X0.7142Y1.5453
X0.7142Y1.4114
X0.7272Y0.9567
X0.7272Y0.937
X0.7295Y0.3004
X0.7449Y1.5453
X0.7453Y1.4114
X0.7512Y0.1354
X0.7512Y0.0488
X0.7583Y1.5453
X0.7587Y1.4114
X0.7626Y1.1004
X0.7717Y1.5453
X0.772Y1.4114
X0.7728Y0.2654
X0.7815Y0.8492
X0.7815Y0.8354
X0.7815Y0.8217
X0.7815Y0.7803
X0.7815Y0.7665
X0.7815Y0.7528
X0.7815Y0.739
X0.7815Y0.7252
X0.7815Y0.7114
X0.7815Y0.6976
X0.7969Y0.1984
X0.8059Y0.935
X0.8059Y0.9213
X0.8059Y0.9075
X0.8059Y0.8937
X0.8059Y0.8799
X0.8059Y0.8661
T0
M30
