%TF.GenerationSoftware,KiCad,Pcbnew,(5.99.0-10952-g410dbe17de)*%
%TF.CreationDate,2021-06-12T08:48:31+02:00*%
%TF.ProjectId,reDIP-64,72654449-502d-4363-942e-6b696361645f,0.2*%
%TF.SameCoordinates,PX594fc50PY8e9a590*%
%TF.FileFunction,OtherDrawing,Comment*%
%FSLAX46Y46*%
G04 Gerber Fmt 4.6, Leading zero omitted, Abs format (unit mm)*
G04 Created by KiCad (PCBNEW (5.99.0-10952-g410dbe17de)) date 2021-06-12 08:48:31*
%MOMM*%
%LPD*%
G01*
G04 APERTURE LIST*
%ADD10C,0.150000*%
G04 APERTURE END LIST*
D10*
X25400000Y-2000000D02*
X25400000Y-4000000D01*
X-2000000Y50800000D02*
X-4000000Y50800000D01*
X-3000000Y0D02*
X-3000000Y50800000D01*
X-2000000Y0D02*
X-4000000Y0D01*
X0Y-2000000D02*
X0Y-4000000D01*
X0Y-3000000D02*
X25400000Y-3000000D01*
X-5167620Y23697143D02*
X-5167620Y23220953D01*
X-4691429Y23173334D01*
X-4739048Y23220953D01*
X-4786667Y23316191D01*
X-4786667Y23554286D01*
X-4739048Y23649524D01*
X-4691429Y23697143D01*
X-4596191Y23744762D01*
X-4358096Y23744762D01*
X-4262858Y23697143D01*
X-4215239Y23649524D01*
X-4167620Y23554286D01*
X-4167620Y23316191D01*
X-4215239Y23220953D01*
X-4262858Y23173334D01*
X-5167620Y24363810D02*
X-5167620Y24459048D01*
X-5120000Y24554286D01*
X-5072381Y24601905D01*
X-4977143Y24649524D01*
X-4786667Y24697143D01*
X-4548572Y24697143D01*
X-4358096Y24649524D01*
X-4262858Y24601905D01*
X-4215239Y24554286D01*
X-4167620Y24459048D01*
X-4167620Y24363810D01*
X-4215239Y24268572D01*
X-4262858Y24220953D01*
X-4358096Y24173334D01*
X-4548572Y24125715D01*
X-4786667Y24125715D01*
X-4977143Y24173334D01*
X-5072381Y24220953D01*
X-5120000Y24268572D01*
X-5167620Y24363810D01*
X-4262858Y25125715D02*
X-4215239Y25173334D01*
X-4167620Y25125715D01*
X-4215239Y25078096D01*
X-4262858Y25125715D01*
X-4167620Y25125715D01*
X-4739048Y25744762D02*
X-4786667Y25649524D01*
X-4834286Y25601905D01*
X-4929524Y25554286D01*
X-4977143Y25554286D01*
X-5072381Y25601905D01*
X-5120000Y25649524D01*
X-5167620Y25744762D01*
X-5167620Y25935239D01*
X-5120000Y26030477D01*
X-5072381Y26078096D01*
X-4977143Y26125715D01*
X-4929524Y26125715D01*
X-4834286Y26078096D01*
X-4786667Y26030477D01*
X-4739048Y25935239D01*
X-4739048Y25744762D01*
X-4691429Y25649524D01*
X-4643810Y25601905D01*
X-4548572Y25554286D01*
X-4358096Y25554286D01*
X-4262858Y25601905D01*
X-4215239Y25649524D01*
X-4167620Y25744762D01*
X-4167620Y25935239D01*
X-4215239Y26030477D01*
X-4262858Y26078096D01*
X-4358096Y26125715D01*
X-4548572Y26125715D01*
X-4643810Y26078096D01*
X-4691429Y26030477D01*
X-4739048Y25935239D01*
X-5167620Y26744762D02*
X-5167620Y26840000D01*
X-5120000Y26935239D01*
X-5072381Y26982858D01*
X-4977143Y27030477D01*
X-4786667Y27078096D01*
X-4548572Y27078096D01*
X-4358096Y27030477D01*
X-4262858Y26982858D01*
X-4215239Y26935239D01*
X-4167620Y26840000D01*
X-4167620Y26744762D01*
X-4215239Y26649524D01*
X-4262858Y26601905D01*
X-4358096Y26554286D01*
X-4548572Y26506667D01*
X-4786667Y26506667D01*
X-4977143Y26554286D01*
X-5072381Y26601905D01*
X-5120000Y26649524D01*
X-5167620Y26744762D01*
X-4167620Y28268572D02*
X-4834286Y28268572D01*
X-4739048Y28268572D02*
X-4786667Y28316191D01*
X-4834286Y28411429D01*
X-4834286Y28554286D01*
X-4786667Y28649524D01*
X-4691429Y28697143D01*
X-4167620Y28697143D01*
X-4691429Y28697143D02*
X-4786667Y28744762D01*
X-4834286Y28840000D01*
X-4834286Y28982858D01*
X-4786667Y29078096D01*
X-4691429Y29125715D01*
X-4167620Y29125715D01*
X-4167620Y29601905D02*
X-4834286Y29601905D01*
X-4739048Y29601905D02*
X-4786667Y29649524D01*
X-4834286Y29744762D01*
X-4834286Y29887620D01*
X-4786667Y29982858D01*
X-4691429Y30030477D01*
X-4167620Y30030477D01*
X-4691429Y30030477D02*
X-4786667Y30078096D01*
X-4834286Y30173334D01*
X-4834286Y30316191D01*
X-4786667Y30411429D01*
X-4691429Y30459048D01*
X-4167620Y30459048D01*
X10423333Y-4037619D02*
X10470952Y-3990000D01*
X10566190Y-3942380D01*
X10804285Y-3942380D01*
X10899523Y-3990000D01*
X10947142Y-4037619D01*
X10994761Y-4132857D01*
X10994761Y-4228095D01*
X10947142Y-4370952D01*
X10375714Y-4942380D01*
X10994761Y-4942380D01*
X11899523Y-3942380D02*
X11423333Y-3942380D01*
X11375714Y-4418571D01*
X11423333Y-4370952D01*
X11518571Y-4323333D01*
X11756666Y-4323333D01*
X11851904Y-4370952D01*
X11899523Y-4418571D01*
X11947142Y-4513809D01*
X11947142Y-4751904D01*
X11899523Y-4847142D01*
X11851904Y-4894761D01*
X11756666Y-4942380D01*
X11518571Y-4942380D01*
X11423333Y-4894761D01*
X11375714Y-4847142D01*
X12375714Y-4847142D02*
X12423333Y-4894761D01*
X12375714Y-4942380D01*
X12328095Y-4894761D01*
X12375714Y-4847142D01*
X12375714Y-4942380D01*
X13280476Y-4275714D02*
X13280476Y-4942380D01*
X13042380Y-3894761D02*
X12804285Y-4609047D01*
X13423333Y-4609047D01*
X13994761Y-3942380D02*
X14090000Y-3942380D01*
X14185238Y-3990000D01*
X14232857Y-4037619D01*
X14280476Y-4132857D01*
X14328095Y-4323333D01*
X14328095Y-4561428D01*
X14280476Y-4751904D01*
X14232857Y-4847142D01*
X14185238Y-4894761D01*
X14090000Y-4942380D01*
X13994761Y-4942380D01*
X13899523Y-4894761D01*
X13851904Y-4847142D01*
X13804285Y-4751904D01*
X13756666Y-4561428D01*
X13756666Y-4323333D01*
X13804285Y-4132857D01*
X13851904Y-4037619D01*
X13899523Y-3990000D01*
X13994761Y-3942380D01*
X15518571Y-4942380D02*
X15518571Y-4275714D01*
X15518571Y-4370952D02*
X15566190Y-4323333D01*
X15661428Y-4275714D01*
X15804285Y-4275714D01*
X15899523Y-4323333D01*
X15947142Y-4418571D01*
X15947142Y-4942380D01*
X15947142Y-4418571D02*
X15994761Y-4323333D01*
X16090000Y-4275714D01*
X16232857Y-4275714D01*
X16328095Y-4323333D01*
X16375714Y-4418571D01*
X16375714Y-4942380D01*
X16851904Y-4942380D02*
X16851904Y-4275714D01*
X16851904Y-4370952D02*
X16899523Y-4323333D01*
X16994761Y-4275714D01*
X17137619Y-4275714D01*
X17232857Y-4323333D01*
X17280476Y-4418571D01*
X17280476Y-4942380D01*
X17280476Y-4418571D02*
X17328095Y-4323333D01*
X17423333Y-4275714D01*
X17566190Y-4275714D01*
X17661428Y-4323333D01*
X17709047Y-4418571D01*
X17709047Y-4942380D01*
M02*
