%TF.GenerationSoftware,KiCad,Pcbnew,(5.99.0-10952-g410dbe17de)*%
%TF.CreationDate,2021-06-12T08:48:31+02:00*%
%TF.ProjectId,reDIP-64,72654449-502d-4363-942e-6b696361645f,0.2*%
%TF.SameCoordinates,PX594fc50PY8e9a590*%
%TF.FileFunction,Soldermask,Top*%
%TF.FilePolarity,Negative*%
%FSLAX46Y46*%
G04 Gerber Fmt 4.6, Leading zero omitted, Abs format (unit mm)*
G04 Created by KiCad (PCBNEW (5.99.0-10952-g410dbe17de)) date 2021-06-12 08:48:31*
%MOMM*%
%LPD*%
G01*
G04 APERTURE LIST*
G04 Aperture macros list*
%AMRoundRect*
0 Rectangle with rounded corners*
0 $1 Rounding radius*
0 $2 $3 $4 $5 $6 $7 $8 $9 X,Y pos of 4 corners*
0 Add a 4 corners polygon primitive as box body*
4,1,4,$2,$3,$4,$5,$6,$7,$8,$9,$2,$3,0*
0 Add four circle primitives for the rounded corners*
1,1,$1+$1,$2,$3*
1,1,$1+$1,$4,$5*
1,1,$1+$1,$6,$7*
1,1,$1+$1,$8,$9*
0 Add four rect primitives between the rounded corners*
20,1,$1+$1,$2,$3,$4,$5,0*
20,1,$1+$1,$4,$5,$6,$7,0*
20,1,$1+$1,$6,$7,$8,$9,0*
20,1,$1+$1,$8,$9,$2,$3,0*%
G04 Aperture macros list end*
%ADD10RoundRect,0.050000X-0.750000X0.275000X-0.750000X-0.275000X0.750000X-0.275000X0.750000X0.275000X0*%
%ADD11RoundRect,0.150000X0.150000X-0.275000X0.150000X0.275000X-0.150000X0.275000X-0.150000X-0.275000X0*%
%ADD12RoundRect,0.050000X2.150000X-1.700000X2.150000X1.700000X-2.150000X1.700000X-2.150000X-1.700000X0*%
%ADD13RoundRect,0.075000X-0.075000X-0.675000X0.075000X-0.675000X0.075000X0.675000X-0.075000X0.675000X0*%
%ADD14RoundRect,0.075000X0.075000X0.675000X-0.075000X0.675000X-0.075000X-0.675000X0.075000X-0.675000X0*%
%ADD15RoundRect,0.243750X0.281250X-0.243750X0.281250X0.243750X-0.281250X0.243750X-0.281250X-0.243750X0*%
%ADD16RoundRect,0.243750X0.243750X0.281250X-0.243750X0.281250X-0.243750X-0.281250X0.243750X-0.281250X0*%
%ADD17RoundRect,0.250000X0.275000X-0.250000X0.275000X0.250000X-0.275000X0.250000X-0.275000X-0.250000X0*%
%ADD18RoundRect,0.250000X-0.275000X0.250000X-0.275000X-0.250000X0.275000X-0.250000X0.275000X0.250000X0*%
%ADD19RoundRect,0.125000X-0.125000X0.155000X-0.125000X-0.155000X0.125000X-0.155000X0.125000X0.155000X0*%
%ADD20C,0.350000*%
%ADD21RoundRect,0.165000X0.165000X0.195000X-0.165000X0.195000X-0.165000X-0.195000X0.165000X-0.195000X0*%
%ADD22RoundRect,0.090000X0.360000X-0.485000X0.360000X0.485000X-0.360000X0.485000X-0.360000X-0.485000X0*%
%ADD23RoundRect,0.075000X0.375000X-0.300000X0.375000X0.300000X-0.375000X0.300000X-0.375000X-0.300000X0*%
%ADD24RoundRect,0.045000X0.192500X-0.180000X0.192500X0.180000X-0.192500X0.180000X-0.192500X-0.180000X0*%
%ADD25RoundRect,0.050000X1.050000X-0.200000X1.050000X0.200000X-1.050000X0.200000X-1.050000X-0.200000X0*%
%ADD26RoundRect,0.050000X0.550000X-0.750000X0.550000X0.750000X-0.550000X0.750000X-0.550000X-0.750000X0*%
%ADD27RoundRect,0.125000X-0.155000X-0.125000X0.155000X-0.125000X0.155000X0.125000X-0.155000X0.125000X0*%
%ADD28RoundRect,0.125000X0.155000X0.125000X-0.155000X0.125000X-0.155000X-0.125000X0.155000X-0.125000X0*%
%ADD29RoundRect,0.165000X-0.165000X-0.195000X0.165000X-0.195000X0.165000X0.195000X-0.165000X0.195000X0*%
%ADD30RoundRect,0.057000X0.228000X0.293000X-0.228000X0.293000X-0.228000X-0.293000X0.228000X-0.293000X0*%
%ADD31RoundRect,0.050000X-0.500000X-0.500000X0.500000X-0.500000X0.500000X0.500000X-0.500000X0.500000X0*%
%ADD32O,1.100000X1.100000*%
%ADD33O,0.950000X0.600000*%
%ADD34O,0.700000X0.700000*%
%ADD35RoundRect,0.092500X0.092500X0.407500X-0.092500X0.407500X-0.092500X-0.407500X0.092500X-0.407500X0*%
%ADD36RoundRect,0.092500X0.092500X0.357500X-0.092500X0.357500X-0.092500X-0.357500X0.092500X-0.357500X0*%
%ADD37O,1.400000X2.700000*%
%ADD38O,1.300000X2.600000*%
%ADD39RoundRect,0.067450X0.482550X0.407550X-0.482550X0.407550X-0.482550X-0.407550X0.482550X-0.407550X0*%
%ADD40RoundRect,0.070000X0.280000X0.405000X-0.280000X0.405000X-0.280000X-0.405000X0.280000X-0.405000X0*%
%ADD41RoundRect,0.160000X0.240000X-0.240000X0.240000X0.240000X-0.240000X0.240000X-0.240000X-0.240000X0*%
%ADD42C,0.340000*%
%ADD43C,1.700000*%
G04 APERTURE END LIST*
D10*
%TO.C,SW1*%
X19080000Y3965000D03*
X19080000Y715000D03*
%TD*%
D11*
%TO.C,U18*%
X12905000Y810000D03*
X14175000Y810000D03*
X15445000Y810000D03*
X16715000Y810000D03*
X16715000Y6210000D03*
X15445000Y6210000D03*
X14175000Y6210000D03*
X12905000Y6210000D03*
D12*
X14810000Y3510000D03*
%TD*%
D13*
%TO.C,U14*%
X8570000Y8700000D03*
X8970000Y8700000D03*
X9370000Y8700000D03*
X9770000Y8700000D03*
X10170000Y8700000D03*
X10570000Y8700000D03*
X10970000Y8700000D03*
X11370000Y8700000D03*
X11770000Y8700000D03*
X12170000Y8700000D03*
X12570000Y8700000D03*
X12970000Y8700000D03*
X13370000Y8700000D03*
X13770000Y8700000D03*
X14170000Y8700000D03*
X14570000Y8700000D03*
X14970000Y8700000D03*
X15370000Y8700000D03*
X15770000Y8700000D03*
X16170000Y8700000D03*
X16570000Y8700000D03*
X16970000Y8700000D03*
X17370000Y8700000D03*
X17770000Y8700000D03*
X18170000Y8700000D03*
X18570000Y8700000D03*
X18970000Y8700000D03*
X19370000Y8700000D03*
X19370000Y14600000D03*
X18970000Y14600000D03*
X18570000Y14600000D03*
X18170000Y14600000D03*
X17770000Y14600000D03*
X17370000Y14600000D03*
X16970000Y14600000D03*
X16570000Y14600000D03*
X16170000Y14600000D03*
X15770000Y14600000D03*
X15370000Y14600000D03*
X14970000Y14600000D03*
X14570000Y14600000D03*
X14170000Y14600000D03*
X13770000Y14600000D03*
X13370000Y14600000D03*
X12970000Y14600000D03*
X12570000Y14600000D03*
X12170000Y14600000D03*
X11770000Y14600000D03*
X11370000Y14600000D03*
X10970000Y14600000D03*
X10570000Y14600000D03*
X10170000Y14600000D03*
X9770000Y14600000D03*
X9370000Y14600000D03*
X8970000Y14600000D03*
X8570000Y14600000D03*
%TD*%
D14*
%TO.C,U13*%
X19370000Y32900000D03*
X18970000Y32900000D03*
X18570000Y32900000D03*
X18170000Y32900000D03*
X17770000Y32900000D03*
X17370000Y32900000D03*
X16970000Y32900000D03*
X16570000Y32900000D03*
X16170000Y32900000D03*
X15770000Y32900000D03*
X15370000Y32900000D03*
X14970000Y32900000D03*
X14570000Y32900000D03*
X14170000Y32900000D03*
X13770000Y32900000D03*
X13370000Y32900000D03*
X12970000Y32900000D03*
X12570000Y32900000D03*
X12170000Y32900000D03*
X11770000Y32900000D03*
X11370000Y32900000D03*
X10970000Y32900000D03*
X10570000Y32900000D03*
X10170000Y32900000D03*
X9770000Y32900000D03*
X9370000Y32900000D03*
X8970000Y32900000D03*
X8570000Y32900000D03*
X8570000Y27000000D03*
X8970000Y27000000D03*
X9370000Y27000000D03*
X9770000Y27000000D03*
X10170000Y27000000D03*
X10570000Y27000000D03*
X10970000Y27000000D03*
X11370000Y27000000D03*
X11770000Y27000000D03*
X12170000Y27000000D03*
X12570000Y27000000D03*
X12970000Y27000000D03*
X13370000Y27000000D03*
X13770000Y27000000D03*
X14170000Y27000000D03*
X14570000Y27000000D03*
X14970000Y27000000D03*
X15370000Y27000000D03*
X15770000Y27000000D03*
X16170000Y27000000D03*
X16570000Y27000000D03*
X16970000Y27000000D03*
X17370000Y27000000D03*
X17770000Y27000000D03*
X18170000Y27000000D03*
X18570000Y27000000D03*
X18970000Y27000000D03*
X19370000Y27000000D03*
%TD*%
D15*
%TO.C,FB4*%
X19270000Y36532500D03*
X19270000Y38107500D03*
%TD*%
D16*
%TO.C,FB1*%
X12157500Y38050000D03*
X10582500Y38050000D03*
%TD*%
%TO.C,FB2*%
X12157500Y36590000D03*
X10582500Y36590000D03*
%TD*%
D15*
%TO.C,FB3*%
X19260000Y39932500D03*
X19260000Y41507500D03*
%TD*%
D17*
%TO.C,C33*%
X13580000Y35545000D03*
X13580000Y37095000D03*
%TD*%
D18*
%TO.C,C35*%
X17800000Y38095000D03*
X17800000Y36545000D03*
%TD*%
%TO.C,C34*%
X17800000Y41495000D03*
X17800000Y39945000D03*
%TD*%
D19*
%TO.C,R15*%
X8500000Y40770000D03*
X8500000Y40130000D03*
%TD*%
D20*
%TO.C,U6*%
X11350000Y40200000D03*
X11350000Y40700000D03*
X11850000Y40200000D03*
X11850000Y40700000D03*
X12350000Y40200000D03*
X12350000Y40700000D03*
%TD*%
D21*
%TO.C,C19*%
X9540000Y39240000D03*
X8580000Y39240000D03*
%TD*%
D22*
%TO.C,D4*%
X9290000Y36645000D03*
D23*
X9290000Y37695000D03*
%TD*%
D24*
%TO.C,U8*%
X16627500Y39670000D03*
X16627500Y40220000D03*
X16627500Y40770000D03*
X14752500Y40770000D03*
X14752500Y40220000D03*
X14752500Y39670000D03*
D25*
X15690000Y38970000D03*
X15690000Y41470000D03*
D26*
X15690000Y40220000D03*
%TD*%
D24*
%TO.C,U9*%
X16627500Y36270000D03*
X16627500Y36820000D03*
X16627500Y37370000D03*
X14752500Y37370000D03*
X14752500Y36820000D03*
X14752500Y36270000D03*
D25*
X15690000Y35570000D03*
X15690000Y38070000D03*
D26*
X15690000Y36820000D03*
%TD*%
D21*
%TO.C,C12*%
X9550000Y41660000D03*
X8590000Y41660000D03*
%TD*%
D20*
%TO.C,U7*%
X10350000Y40700000D03*
X10350000Y40200000D03*
X9850000Y40700000D03*
X9850000Y40200000D03*
X9350000Y40700000D03*
X9350000Y40200000D03*
%TD*%
D27*
%TO.C,C11*%
X12210000Y7180000D03*
X12850000Y7180000D03*
%TD*%
%TO.C,C56*%
X13610000Y7180000D03*
X14250000Y7180000D03*
%TD*%
D28*
%TO.C,R17*%
X17130000Y7180000D03*
X16490000Y7180000D03*
%TD*%
D29*
%TO.C,C18*%
X11320000Y39240000D03*
X12280000Y39240000D03*
%TD*%
%TO.C,C13*%
X11320000Y41660000D03*
X12280000Y41660000D03*
%TD*%
D30*
%TO.C,D1*%
X13875000Y41700000D03*
X13145000Y41700000D03*
%TD*%
D31*
%TO.C,J7*%
X9210000Y3470000D03*
D32*
X10480000Y3470000D03*
X9210000Y2200000D03*
X10480000Y2200000D03*
X9210000Y930000D03*
X10480000Y930000D03*
%TD*%
D33*
%TO.C,J1*%
X10370000Y45885000D03*
D34*
X17570000Y45950000D03*
D35*
X16595000Y43250000D03*
X16095000Y43250000D03*
X15595000Y43250000D03*
X15095000Y43250000D03*
X14595000Y43250000D03*
X14095000Y43250000D03*
X13595000Y43250000D03*
X13095000Y43250000D03*
X12595000Y43250000D03*
X12095000Y43250000D03*
X11595000Y43250000D03*
X11095000Y43250000D03*
D36*
X11345000Y44850000D03*
X11845000Y44850000D03*
X12345000Y44850000D03*
X12845000Y44850000D03*
X13345000Y44850000D03*
X13845000Y44850000D03*
X14345000Y44850000D03*
X14845000Y44850000D03*
X15345000Y44850000D03*
X15845000Y44850000D03*
X16345000Y44850000D03*
X16845000Y44850000D03*
D37*
X18290000Y49000000D03*
D38*
X9650000Y43950000D03*
X18290000Y43950000D03*
D37*
X9650000Y49000000D03*
%TD*%
D39*
%TO.C,U5*%
X11030000Y6920000D03*
D40*
X9980000Y6920000D03*
D39*
X8930000Y6920000D03*
X8930000Y5320000D03*
D40*
X9980000Y5320000D03*
D39*
X11030000Y5320000D03*
%TD*%
D17*
%TO.C,C32*%
X13580000Y38945000D03*
X13580000Y40495000D03*
%TD*%
D28*
%TO.C,C54*%
X18530000Y7180000D03*
X17890000Y7180000D03*
%TD*%
D41*
%TO.C,D5*%
X18530000Y5040000D03*
X18530000Y6140000D03*
X19630000Y6140000D03*
X19630000Y5040000D03*
%TD*%
D42*
%TO.C,U4*%
X18220000Y24550000D03*
X18220000Y24050000D03*
X18220000Y23550000D03*
X18220000Y22550000D03*
X18220000Y22050000D03*
X18220000Y21550000D03*
X18220000Y21050000D03*
X18220000Y20550000D03*
X18220000Y20050000D03*
X18220000Y19550000D03*
X18220000Y19050000D03*
X18220000Y18050000D03*
X18220000Y17550000D03*
X18220000Y17050000D03*
X17720000Y25050000D03*
X17720000Y24550000D03*
X17720000Y24050000D03*
X17720000Y23550000D03*
X17720000Y22550000D03*
X17720000Y22050000D03*
X17720000Y21550000D03*
X17720000Y21050000D03*
X17720000Y20550000D03*
X17720000Y20050000D03*
X17720000Y19550000D03*
X17720000Y19050000D03*
X17720000Y18050000D03*
X17720000Y17550000D03*
X17720000Y17050000D03*
X17720000Y16550000D03*
X17220000Y25050000D03*
X17220000Y24550000D03*
X17220000Y24050000D03*
X17220000Y23550000D03*
X17220000Y22550000D03*
X17220000Y22050000D03*
X17220000Y21550000D03*
X17220000Y21050000D03*
X17220000Y20550000D03*
X17220000Y20050000D03*
X17220000Y19550000D03*
X17220000Y19050000D03*
X17220000Y18050000D03*
X17220000Y17550000D03*
X17220000Y17050000D03*
X17220000Y16550000D03*
X16720000Y25050000D03*
X16720000Y24550000D03*
X16720000Y24050000D03*
X16720000Y23550000D03*
X16720000Y22550000D03*
X16720000Y22050000D03*
X16720000Y21550000D03*
X16720000Y21050000D03*
X16720000Y20550000D03*
X16720000Y20050000D03*
X16720000Y19550000D03*
X16720000Y19050000D03*
X16720000Y18050000D03*
X16720000Y17550000D03*
X16720000Y17050000D03*
X16720000Y16550000D03*
X16220000Y23050000D03*
X16220000Y22550000D03*
X16220000Y22050000D03*
X16220000Y21550000D03*
X16220000Y21050000D03*
X16220000Y20550000D03*
X16220000Y20050000D03*
X16220000Y19550000D03*
X16220000Y19050000D03*
X16220000Y18550000D03*
X15720000Y25050000D03*
X15720000Y24550000D03*
X15720000Y24050000D03*
X15720000Y23550000D03*
X15720000Y23050000D03*
X15720000Y22550000D03*
X15720000Y22050000D03*
X15720000Y21550000D03*
X15720000Y21050000D03*
X15720000Y20550000D03*
X15720000Y20050000D03*
X15720000Y19550000D03*
X15720000Y19050000D03*
X15720000Y18550000D03*
X15720000Y18050000D03*
X15720000Y17550000D03*
X15720000Y17050000D03*
X15720000Y16550000D03*
X15220000Y25050000D03*
X15220000Y24550000D03*
X15220000Y24050000D03*
X15220000Y23550000D03*
X15220000Y23050000D03*
X15220000Y22550000D03*
X15220000Y22050000D03*
X15220000Y21550000D03*
X15220000Y21050000D03*
X15220000Y20550000D03*
X15220000Y20050000D03*
X15220000Y19550000D03*
X15220000Y19050000D03*
X15220000Y18550000D03*
X15220000Y18050000D03*
X15220000Y17550000D03*
X15220000Y17050000D03*
X15220000Y16550000D03*
X14720000Y25050000D03*
X14720000Y24550000D03*
X14720000Y24050000D03*
X14720000Y23550000D03*
X14720000Y23050000D03*
X14720000Y22550000D03*
X14720000Y22050000D03*
X14720000Y21550000D03*
X14720000Y21050000D03*
X14720000Y20550000D03*
X14720000Y20050000D03*
X14720000Y19550000D03*
X14720000Y19050000D03*
X14720000Y18550000D03*
X14720000Y18050000D03*
X14720000Y17550000D03*
X14720000Y17050000D03*
X14720000Y16550000D03*
X14220000Y25050000D03*
X14220000Y24550000D03*
X14220000Y24050000D03*
X14220000Y23550000D03*
X14220000Y23050000D03*
X14220000Y22550000D03*
X14220000Y22050000D03*
X14220000Y21550000D03*
X14220000Y21050000D03*
X14220000Y20550000D03*
X14220000Y20050000D03*
X14220000Y19550000D03*
X14220000Y19050000D03*
X14220000Y18550000D03*
X14220000Y18050000D03*
X14220000Y17550000D03*
X14220000Y17050000D03*
X14220000Y16550000D03*
X13720000Y25050000D03*
X13720000Y24550000D03*
X13720000Y24050000D03*
X13720000Y23550000D03*
X13720000Y23050000D03*
X13720000Y22550000D03*
X13720000Y22050000D03*
X13720000Y21550000D03*
X13720000Y21050000D03*
X13720000Y20550000D03*
X13720000Y20050000D03*
X13720000Y19550000D03*
X13720000Y19050000D03*
X13720000Y18550000D03*
X13720000Y18050000D03*
X13720000Y17550000D03*
X13720000Y17050000D03*
X13720000Y16550000D03*
X13220000Y25050000D03*
X13220000Y24550000D03*
X13220000Y24050000D03*
X13220000Y23550000D03*
X13220000Y23050000D03*
X13220000Y22550000D03*
X13220000Y22050000D03*
X13220000Y21550000D03*
X13220000Y21050000D03*
X13220000Y20550000D03*
X13220000Y20050000D03*
X13220000Y19550000D03*
X13220000Y19050000D03*
X13220000Y18550000D03*
X13220000Y18050000D03*
X13220000Y17550000D03*
X13220000Y17050000D03*
X13220000Y16550000D03*
X12720000Y25050000D03*
X12720000Y24550000D03*
X12720000Y24050000D03*
X12720000Y23550000D03*
X12720000Y23050000D03*
X12720000Y22550000D03*
X12720000Y22050000D03*
X12720000Y21550000D03*
X12720000Y21050000D03*
X12720000Y20550000D03*
X12720000Y20050000D03*
X12720000Y19550000D03*
X12720000Y19050000D03*
X12720000Y18550000D03*
X12720000Y18050000D03*
X12720000Y17550000D03*
X12720000Y17050000D03*
X12720000Y16550000D03*
X12220000Y25050000D03*
X12220000Y24550000D03*
X12220000Y24050000D03*
X12220000Y23550000D03*
X12220000Y23050000D03*
X12220000Y22550000D03*
X12220000Y22050000D03*
X12220000Y21550000D03*
X12220000Y21050000D03*
X12220000Y20550000D03*
X12220000Y20050000D03*
X12220000Y19550000D03*
X12220000Y19050000D03*
X12220000Y18550000D03*
X12220000Y18050000D03*
X12220000Y17550000D03*
X12220000Y17050000D03*
X12220000Y16550000D03*
X11720000Y23050000D03*
X11720000Y22550000D03*
X11720000Y22050000D03*
X11720000Y21550000D03*
X11720000Y21050000D03*
X11720000Y20550000D03*
X11720000Y20050000D03*
X11720000Y19550000D03*
X11720000Y19050000D03*
X11720000Y18550000D03*
X11220000Y25050000D03*
X11220000Y24550000D03*
X11220000Y24050000D03*
X11220000Y20550000D03*
X11220000Y17550000D03*
X11220000Y17050000D03*
X11220000Y16550000D03*
X10720000Y25050000D03*
X10720000Y24550000D03*
X10720000Y24050000D03*
X10720000Y23550000D03*
X10720000Y23050000D03*
X10720000Y22550000D03*
X10720000Y22050000D03*
X10720000Y21550000D03*
X10720000Y21050000D03*
X10720000Y20550000D03*
X10720000Y20050000D03*
X10720000Y19550000D03*
X10720000Y19050000D03*
X10720000Y18550000D03*
X10720000Y18050000D03*
X10720000Y17550000D03*
X10720000Y17050000D03*
X10720000Y16550000D03*
X10220000Y25050000D03*
X10220000Y24550000D03*
X10220000Y24050000D03*
X10220000Y23550000D03*
X10220000Y23050000D03*
X10220000Y22550000D03*
X10220000Y22050000D03*
X10220000Y21550000D03*
X10220000Y21050000D03*
X10220000Y20550000D03*
X10220000Y20050000D03*
X10220000Y19550000D03*
X10220000Y19050000D03*
X10220000Y18550000D03*
X10220000Y18050000D03*
X10220000Y17550000D03*
X10220000Y17050000D03*
X10220000Y16550000D03*
X9720000Y24550000D03*
X9720000Y24050000D03*
X9720000Y23550000D03*
X9720000Y23050000D03*
X9720000Y22550000D03*
X9720000Y22050000D03*
X9720000Y21550000D03*
X9720000Y21050000D03*
X9720000Y20550000D03*
X9720000Y20050000D03*
X9720000Y19550000D03*
X9720000Y19050000D03*
X9720000Y18550000D03*
X9720000Y18050000D03*
X9720000Y17550000D03*
X9720000Y17050000D03*
%TD*%
D43*
%TO.C,J2*%
X6350000Y49530000D03*
X6350000Y46990000D03*
X6350000Y44450000D03*
X6350000Y41910000D03*
X6350000Y39370000D03*
X6350000Y36830000D03*
X6350000Y34290000D03*
X6350000Y31750000D03*
X6350000Y29210000D03*
X6350000Y26670000D03*
X6350000Y24130000D03*
X6350000Y21590000D03*
X6350000Y19050000D03*
X6350000Y16510000D03*
X6350000Y13970000D03*
X6350000Y11430000D03*
X6350000Y8890000D03*
X6350000Y6350000D03*
X6350000Y3810000D03*
X6350000Y1270000D03*
%TD*%
%TO.C,J6*%
X21590000Y49530000D03*
X21590000Y46990000D03*
X21590000Y44450000D03*
X21590000Y41910000D03*
X21590000Y39370000D03*
X21590000Y36830000D03*
X21590000Y34290000D03*
X21590000Y31750000D03*
X21590000Y29210000D03*
X21590000Y26670000D03*
X21590000Y24130000D03*
X21590000Y21590000D03*
X21590000Y19050000D03*
X21590000Y16510000D03*
X21590000Y13970000D03*
X21590000Y11430000D03*
X21590000Y8890000D03*
X21590000Y6350000D03*
X21590000Y3810000D03*
X21590000Y1270000D03*
%TD*%
%TO.C,J4*%
X24130000Y49530000D03*
X24130000Y46990000D03*
X24130000Y44450000D03*
X24130000Y41910000D03*
X24130000Y39370000D03*
X24130000Y36830000D03*
X24130000Y34290000D03*
X24130000Y31750000D03*
X24130000Y29210000D03*
X24130000Y26670000D03*
X24130000Y24130000D03*
X24130000Y21590000D03*
X24130000Y19050000D03*
X24130000Y16510000D03*
X24130000Y13970000D03*
X24130000Y11430000D03*
X24130000Y8890000D03*
X24130000Y6350000D03*
X24130000Y3810000D03*
X24130000Y1270000D03*
%TD*%
%TO.C,J3*%
X1270000Y49530000D03*
X1270000Y46990000D03*
X1270000Y44450000D03*
X1270000Y41910000D03*
X1270000Y39370000D03*
X1270000Y36830000D03*
X1270000Y34290000D03*
X1270000Y31750000D03*
X1270000Y29210000D03*
X1270000Y26670000D03*
X1270000Y24130000D03*
X1270000Y21590000D03*
X1270000Y19050000D03*
X1270000Y16510000D03*
X1270000Y13970000D03*
X1270000Y11430000D03*
X1270000Y8890000D03*
X1270000Y6350000D03*
X1270000Y3810000D03*
X1270000Y1270000D03*
%TD*%
%TO.C,J5*%
X3810000Y49530000D03*
X3810000Y46990000D03*
X3810000Y44450000D03*
X3810000Y41910000D03*
X3810000Y39370000D03*
X3810000Y36830000D03*
X3810000Y34290000D03*
X3810000Y31750000D03*
X3810000Y29210000D03*
X3810000Y26670000D03*
X3810000Y24130000D03*
X3810000Y21590000D03*
X3810000Y19050000D03*
X3810000Y16510000D03*
X3810000Y13970000D03*
X3810000Y11430000D03*
X3810000Y8890000D03*
X3810000Y6350000D03*
X3810000Y3810000D03*
X3810000Y1270000D03*
%TD*%
M02*
