M48
; DRILL file {KiCad (5.99.0-10952-g410dbe17de)} date Sat Jun 12 08:48:55 2021
; FORMAT={-:-/ absolute / inch / decimal}
; #@! TF.CreationDate,2021-06-12T08:48:55+02:00
; #@! TF.GenerationSoftware,Kicad,Pcbnew,(5.99.0-10952-g410dbe17de)
; #@! TF.FileFunction,Plated,4,5,Buried
FMAT,2
INCH
; #@! TA.AperFunction,Plated,Buried,ViaDrill
T1C0.0039
%
G90
G05
T1
X0.3366Y0.887
X0.3583Y1.0157
X0.3602Y0.887
X0.3819Y1.0157
X0.4283Y0.6177
X0.5146Y1.6165
X0.5185Y1.7185
X0.5343Y1.7343
X0.5382Y1.6165
X0.5555Y1.8126
X0.5618Y1.5976
X0.5657Y1.7677
X0.5661Y1.0398
X0.572Y1.7484
X0.5854Y1.5976
X0.5898Y1.0398
X0.5984Y0.8189
X0.5988Y1.3555
X0.6031Y1.3315
X0.6118Y0.1386
X0.6185Y1.3752
X0.6228Y1.3512
X0.6382Y1.3949
X0.6425Y1.3709
X0.6512Y0.0598
X0.6598Y1.8602
X0.6598Y1.8366
X0.6622Y1.3906
X0.676Y1.4075
X0.6906Y0.2173
X0.6906Y0.178
X0.6906Y0.1386
X0.7343Y0.9469
X0.7343Y0.9193
T0
M30
