M48
; DRILL file {KiCad (5.99.0-10952-g410dbe17de)} date Sat Jun 12 08:48:55 2021
; FORMAT={-:-/ absolute / inch / decimal}
; #@! TF.CreationDate,2021-06-12T08:48:55+02:00
; #@! TF.GenerationSoftware,Kicad,Pcbnew,(5.99.0-10952-g410dbe17de)
; #@! TF.FileFunction,Plated,5,6,Blind
FMAT,2
INCH
; #@! TA.AperFunction,Plated,Buried,ViaDrill
T1C0.0039
%
G90
G05
T1
X0.3346Y1.5685
X0.3346Y1.5055
X0.3346Y0.8772
X0.3346Y0.8197
X0.3374Y1.1008
X0.3374Y0.5402
X0.3461Y0.5154
X0.3461Y0.4957
X0.3461Y0.476
X0.3524Y1.6157
X0.3524Y1.5906
X0.3528Y1.4583
X0.3531Y0.7724
X0.3559Y0.4661
X0.3563Y1.0059
X0.3563Y0.9484
X0.3622Y0.8772
X0.3622Y0.8197
X0.3657Y0.4563
X0.3807Y0.726
X0.3839Y1.0059
X0.3839Y0.9484
X0.3846Y0.6787
X0.3866Y0.7067
X0.3996Y0.9094
X0.4083Y1.1433
X0.4083Y1.1236
X0.4083Y1.1039
X0.4098Y1.6465
X0.4098Y1.6213
X0.4154Y1.5374
X0.4154Y1.5138
X0.4161Y1.0283
X0.4248Y0.9094
X0.4248Y0.7882
X0.426Y0.6276
X0.4319Y1.0283
X0.4319Y0.8189
X0.4319Y0.5402
X0.4382Y0.7307
X0.4398Y0.7047
X0.4406Y0.5154
X0.4406Y0.4957
X0.4406Y0.476
X0.4406Y0.4563
X0.4413Y0.7614
X0.4429Y1.5374
X0.4429Y1.5138
X0.4476Y1.2579
X0.4476Y1.1004
X0.4476Y0.2992
X0.4547Y0.6398
X0.4563Y0.4563
X0.4594Y1.6024
X0.4594Y1.5815
X0.4594Y1.4622
X0.4622Y0.9114
X0.4634Y1.0283
X0.4748Y1.8618
X0.4752Y1.8047
X0.4791Y1.0283
X0.4791Y0.5374
X0.4791Y0.3799
X0.4811Y0.8465
X0.4831Y1.7457
X0.4925Y0.7587
X0.4949Y1.8335
X0.4949Y1.0283
X0.4957Y1.574
X0.4972Y1.6252
X0.4976Y0.2626
X0.4988Y1.7441
X0.4988Y1.5941
X0.502Y0.9094
X0.5063Y1.8776
X0.5063Y1.8335
X0.5063Y1.7894
X0.5087Y0.8465
X0.5087Y0.7913
X0.5106Y1.0283
X0.5177Y1.8335
X0.5185Y1.7457
X0.5185Y1.6067
X0.5185Y0.9291
X0.5224Y1.3445
X0.5224Y0.7366
X0.5264Y1.0283
X0.5343Y1.7441
X0.5343Y1.6067
X0.5343Y1.0146
X0.5362Y0.9646
X0.5362Y0.8465
X0.5362Y0.7913
X0.5362Y0.6732
X0.5378Y1.8618
X0.5378Y1.8051
X0.5421Y1.0283
X0.5421Y0.5205
X0.5445Y1.4047
X0.5488Y1.0008
X0.55Y1.6677
X0.55Y1.652
X0.55Y1.572
X0.55Y1.4815
X0.55Y1.1728
X0.55Y1.1591
X0.55Y1.1453
X0.55Y1.1315
X0.55Y1.1177
X0.55Y1.1039
X0.5504Y0.9866
X0.5508Y0.4957
X0.5508Y0.476
X0.5508Y0.4563
X0.5508Y0.4366
X0.5528Y0.2984
X0.5606Y0.4268
X0.5638Y0.8465
X0.5638Y0.7913
X0.5638Y0.6732
X0.565Y1.8638
X0.5657Y1.7776
X0.5657Y1.6067
X0.5677Y1.8122
X0.5724Y0.2551
X0.5724Y0.1937
X0.5724Y0.1555
X0.578Y0.298
X0.5795Y0.9587
X0.5795Y0.9075
X0.5815Y1.7457
X0.5815Y1.6067
X0.5815Y0.7102
X0.5839Y1.7803
X0.5902Y0.7283
X0.5913Y0.8465
X0.5913Y0.7913
X0.5961Y1.3386
X0.6008Y0.0319
X0.6012Y1.5795
X0.6035Y0.9031
X0.6047Y0.9866
X0.6059Y1.3484
X0.6063Y1.0008
X0.6094Y0.8374
X0.6118Y0.2543
X0.6118Y0.2004
X0.6118Y0.1543
X0.6157Y1.3583
X0.6169Y1.7457
X0.6189Y0.7913
X0.6201Y0.7283
X0.6209Y1.2579
X0.6209Y1.0256
X0.6217Y1.6039
X0.6217Y0.9921
X0.6224Y1.652
X0.624Y1.8031
X0.6256Y1.3681
X0.6315Y0.0539
X0.6327Y1.7441
X0.6354Y1.378
X0.6394Y0.2803
X0.6437Y1.5228
X0.6453Y1.3878
X0.6453Y0.728
X0.6472Y1.6654
X0.65Y1.8575
X0.65Y1.8394
X0.6512Y0.0756
X0.6524Y0.3051
X0.6528Y0.5374
X0.6551Y1.3976
X0.6587Y0.9039
X0.6646Y0.8189
X0.665Y1.4244
X0.665Y1.4075
X0.6681Y1.5472
X0.6681Y1.5228
X0.6681Y1.4984
X0.6748Y1.6654
X0.6752Y0.7283
X0.6827Y1.3803
X0.6858Y0.878
X0.6858Y0.8504
X0.6858Y0.7913
X0.6906Y0.2016
X0.6906Y0.1622
X0.6906Y0.1228
X0.6906Y0.0429
X0.6925Y1.5228
X0.7004Y0.9894
X0.7024Y0.2803
X0.7102Y1.3803
X0.7193Y0.8642
X0.7193Y0.8327
X0.7193Y0.8051
X0.7193Y0.7736
X0.7193Y0.7461
X0.7228Y1.6039
X0.7378Y1.4433
X0.7378Y1.3803
X0.7441Y0.9469
X0.7441Y0.9193
X0.7472Y0.8929
X0.7626Y0.5374
X0.7815Y0.7665
X0.7815Y0.7528
X0.7815Y0.739
X0.7815Y0.7252
X0.7815Y0.7114
X0.7815Y0.6976
X0.7831Y1.6465
X0.7831Y1.6213
X0.7831Y1.5646
X0.7831Y1.5346
X0.7831Y1.4795
X0.7831Y1.4543
X0.8059Y0.935
X0.8059Y0.9213
X0.8059Y0.9075
X0.8059Y0.8937
X0.8059Y0.8799
X0.8059Y0.8661
T0
M30
