%TF.GenerationSoftware,KiCad,Pcbnew,(5.99.0-10952-g410dbe17de)*%
%TF.CreationDate,2021-06-12T08:48:31+02:00*%
%TF.ProjectId,reDIP-64,72654449-502d-4363-942e-6b696361645f,0.2*%
%TF.SameCoordinates,PX594fc50PY8e9a590*%
%TF.FileFunction,AssemblyDrawing,Bot*%
%FSLAX46Y46*%
G04 Gerber Fmt 4.6, Leading zero omitted, Abs format (unit mm)*
G04 Created by KiCad (PCBNEW (5.99.0-10952-g410dbe17de)) date 2021-06-12 08:48:31*
%MOMM*%
%LPD*%
G01*
G04 APERTURE LIST*
%ADD10C,0.150000*%
%ADD11C,0.040000*%
%ADD12C,0.100000*%
%ADD13C,0.110000*%
%ADD14C,0.060000*%
%ADD15C,0.080000*%
%ADD16C,0.030000*%
%ADD17C,0.120000*%
G04 APERTURE END LIST*
D10*
%TO.C,J2*%
X5802380Y25733334D02*
X6516666Y25733334D01*
X6659523Y25780953D01*
X6754761Y25876191D01*
X6802380Y26019048D01*
X6802380Y26114286D01*
X5897619Y25304762D02*
X5850000Y25257143D01*
X5802380Y25161905D01*
X5802380Y24923810D01*
X5850000Y24828572D01*
X5897619Y24780953D01*
X5992857Y24733334D01*
X6088095Y24733334D01*
X6230952Y24780953D01*
X6802380Y25352381D01*
X6802380Y24733334D01*
%TO.C,J6*%
X21042380Y25733334D02*
X21756666Y25733334D01*
X21899523Y25780953D01*
X21994761Y25876191D01*
X22042380Y26019048D01*
X22042380Y26114286D01*
X21042380Y24828572D02*
X21042380Y25019048D01*
X21090000Y25114286D01*
X21137619Y25161905D01*
X21280476Y25257143D01*
X21470952Y25304762D01*
X21851904Y25304762D01*
X21947142Y25257143D01*
X21994761Y25209524D01*
X22042380Y25114286D01*
X22042380Y24923810D01*
X21994761Y24828572D01*
X21947142Y24780953D01*
X21851904Y24733334D01*
X21613809Y24733334D01*
X21518571Y24780953D01*
X21470952Y24828572D01*
X21423333Y24923810D01*
X21423333Y25114286D01*
X21470952Y25209524D01*
X21518571Y25257143D01*
X21613809Y25304762D01*
%TO.C,J4*%
X23582380Y25733334D02*
X24296666Y25733334D01*
X24439523Y25780953D01*
X24534761Y25876191D01*
X24582380Y26019048D01*
X24582380Y26114286D01*
X23915714Y24828572D02*
X24582380Y24828572D01*
X23534761Y25066667D02*
X24249047Y25304762D01*
X24249047Y24685715D01*
%TO.C,U15*%
X15208095Y30497620D02*
X15208095Y29688096D01*
X15160476Y29592858D01*
X15112857Y29545239D01*
X15017619Y29497620D01*
X14827142Y29497620D01*
X14731904Y29545239D01*
X14684285Y29592858D01*
X14636666Y29688096D01*
X14636666Y30497620D01*
X13636666Y29497620D02*
X14208095Y29497620D01*
X13922380Y29497620D02*
X13922380Y30497620D01*
X14017619Y30354762D01*
X14112857Y30259524D01*
X14208095Y30211905D01*
X12731904Y30497620D02*
X13208095Y30497620D01*
X13255714Y30021429D01*
X13208095Y30069048D01*
X13112857Y30116667D01*
X12874761Y30116667D01*
X12779523Y30069048D01*
X12731904Y30021429D01*
X12684285Y29926191D01*
X12684285Y29688096D01*
X12731904Y29592858D01*
X12779523Y29545239D01*
X12874761Y29497620D01*
X13112857Y29497620D01*
X13208095Y29545239D01*
X13255714Y29592858D01*
%TO.C,U17*%
X14992380Y4758096D02*
X15801904Y4758096D01*
X15897142Y4710477D01*
X15944761Y4662858D01*
X15992380Y4567620D01*
X15992380Y4377143D01*
X15944761Y4281905D01*
X15897142Y4234286D01*
X15801904Y4186667D01*
X14992380Y4186667D01*
X15992380Y3186667D02*
X15992380Y3758096D01*
X15992380Y3472381D02*
X14992380Y3472381D01*
X15135238Y3567620D01*
X15230476Y3662858D01*
X15278095Y3758096D01*
X14992380Y2853334D02*
X14992380Y2186667D01*
X15992380Y2615239D01*
D11*
%TO.C,R1*%
X11093095Y44091667D02*
X10974047Y44175000D01*
X11093095Y44234524D02*
X10843095Y44234524D01*
X10843095Y44139286D01*
X10855000Y44115477D01*
X10866904Y44103572D01*
X10890714Y44091667D01*
X10926428Y44091667D01*
X10950238Y44103572D01*
X10962142Y44115477D01*
X10974047Y44139286D01*
X10974047Y44234524D01*
X11093095Y43853572D02*
X11093095Y43996429D01*
X11093095Y43925000D02*
X10843095Y43925000D01*
X10878809Y43948810D01*
X10902619Y43972620D01*
X10914523Y43996429D01*
%TO.C,R13*%
X11313095Y35410715D02*
X11194047Y35494048D01*
X11313095Y35553572D02*
X11063095Y35553572D01*
X11063095Y35458334D01*
X11075000Y35434524D01*
X11086904Y35422620D01*
X11110714Y35410715D01*
X11146428Y35410715D01*
X11170238Y35422620D01*
X11182142Y35434524D01*
X11194047Y35458334D01*
X11194047Y35553572D01*
X11313095Y35172620D02*
X11313095Y35315477D01*
X11313095Y35244048D02*
X11063095Y35244048D01*
X11098809Y35267858D01*
X11122619Y35291667D01*
X11134523Y35315477D01*
X11063095Y35089286D02*
X11063095Y34934524D01*
X11158333Y35017858D01*
X11158333Y34982143D01*
X11170238Y34958334D01*
X11182142Y34946429D01*
X11205952Y34934524D01*
X11265476Y34934524D01*
X11289285Y34946429D01*
X11301190Y34958334D01*
X11313095Y34982143D01*
X11313095Y35053572D01*
X11301190Y35077381D01*
X11289285Y35089286D01*
%TO.C,C61*%
X20099285Y40230715D02*
X20111190Y40242620D01*
X20123095Y40278334D01*
X20123095Y40302143D01*
X20111190Y40337858D01*
X20087380Y40361667D01*
X20063571Y40373572D01*
X20015952Y40385477D01*
X19980238Y40385477D01*
X19932619Y40373572D01*
X19908809Y40361667D01*
X19885000Y40337858D01*
X19873095Y40302143D01*
X19873095Y40278334D01*
X19885000Y40242620D01*
X19896904Y40230715D01*
X19873095Y40016429D02*
X19873095Y40064048D01*
X19885000Y40087858D01*
X19896904Y40099762D01*
X19932619Y40123572D01*
X19980238Y40135477D01*
X20075476Y40135477D01*
X20099285Y40123572D01*
X20111190Y40111667D01*
X20123095Y40087858D01*
X20123095Y40040239D01*
X20111190Y40016429D01*
X20099285Y40004524D01*
X20075476Y39992620D01*
X20015952Y39992620D01*
X19992142Y40004524D01*
X19980238Y40016429D01*
X19968333Y40040239D01*
X19968333Y40087858D01*
X19980238Y40111667D01*
X19992142Y40123572D01*
X20015952Y40135477D01*
X20123095Y39754524D02*
X20123095Y39897381D01*
X20123095Y39825953D02*
X19873095Y39825953D01*
X19908809Y39849762D01*
X19932619Y39873572D01*
X19944523Y39897381D01*
%TO.C,R6*%
X8133095Y39081667D02*
X8014047Y39165000D01*
X8133095Y39224524D02*
X7883095Y39224524D01*
X7883095Y39129286D01*
X7895000Y39105477D01*
X7906904Y39093572D01*
X7930714Y39081667D01*
X7966428Y39081667D01*
X7990238Y39093572D01*
X8002142Y39105477D01*
X8014047Y39129286D01*
X8014047Y39224524D01*
X7883095Y38867381D02*
X7883095Y38915000D01*
X7895000Y38938810D01*
X7906904Y38950715D01*
X7942619Y38974524D01*
X7990238Y38986429D01*
X8085476Y38986429D01*
X8109285Y38974524D01*
X8121190Y38962620D01*
X8133095Y38938810D01*
X8133095Y38891191D01*
X8121190Y38867381D01*
X8109285Y38855477D01*
X8085476Y38843572D01*
X8025952Y38843572D01*
X8002142Y38855477D01*
X7990238Y38867381D01*
X7978333Y38891191D01*
X7978333Y38938810D01*
X7990238Y38962620D01*
X8002142Y38974524D01*
X8025952Y38986429D01*
%TO.C,R7*%
X8153095Y37401667D02*
X8034047Y37485000D01*
X8153095Y37544524D02*
X7903095Y37544524D01*
X7903095Y37449286D01*
X7915000Y37425477D01*
X7926904Y37413572D01*
X7950714Y37401667D01*
X7986428Y37401667D01*
X8010238Y37413572D01*
X8022142Y37425477D01*
X8034047Y37449286D01*
X8034047Y37544524D01*
X7903095Y37318334D02*
X7903095Y37151667D01*
X8153095Y37258810D01*
%TO.C,C41*%
X17239285Y42460715D02*
X17251190Y42472620D01*
X17263095Y42508334D01*
X17263095Y42532143D01*
X17251190Y42567858D01*
X17227380Y42591667D01*
X17203571Y42603572D01*
X17155952Y42615477D01*
X17120238Y42615477D01*
X17072619Y42603572D01*
X17048809Y42591667D01*
X17025000Y42567858D01*
X17013095Y42532143D01*
X17013095Y42508334D01*
X17025000Y42472620D01*
X17036904Y42460715D01*
X17096428Y42246429D02*
X17263095Y42246429D01*
X17001190Y42305953D02*
X17179761Y42365477D01*
X17179761Y42210715D01*
X17263095Y41984524D02*
X17263095Y42127381D01*
X17263095Y42055953D02*
X17013095Y42055953D01*
X17048809Y42079762D01*
X17072619Y42103572D01*
X17084523Y42127381D01*
%TO.C,U12*%
X18599523Y41636905D02*
X18599523Y41434524D01*
X18587619Y41410715D01*
X18575714Y41398810D01*
X18551904Y41386905D01*
X18504285Y41386905D01*
X18480476Y41398810D01*
X18468571Y41410715D01*
X18456666Y41434524D01*
X18456666Y41636905D01*
X18206666Y41386905D02*
X18349523Y41386905D01*
X18278095Y41386905D02*
X18278095Y41636905D01*
X18301904Y41601191D01*
X18325714Y41577381D01*
X18349523Y41565477D01*
X18111428Y41613096D02*
X18099523Y41625000D01*
X18075714Y41636905D01*
X18016190Y41636905D01*
X17992380Y41625000D01*
X17980476Y41613096D01*
X17968571Y41589286D01*
X17968571Y41565477D01*
X17980476Y41529762D01*
X18123333Y41386905D01*
X17968571Y41386905D01*
%TO.C,C63*%
X18149285Y35220715D02*
X18161190Y35232620D01*
X18173095Y35268334D01*
X18173095Y35292143D01*
X18161190Y35327858D01*
X18137380Y35351667D01*
X18113571Y35363572D01*
X18065952Y35375477D01*
X18030238Y35375477D01*
X17982619Y35363572D01*
X17958809Y35351667D01*
X17935000Y35327858D01*
X17923095Y35292143D01*
X17923095Y35268334D01*
X17935000Y35232620D01*
X17946904Y35220715D01*
X17923095Y35006429D02*
X17923095Y35054048D01*
X17935000Y35077858D01*
X17946904Y35089762D01*
X17982619Y35113572D01*
X18030238Y35125477D01*
X18125476Y35125477D01*
X18149285Y35113572D01*
X18161190Y35101667D01*
X18173095Y35077858D01*
X18173095Y35030239D01*
X18161190Y35006429D01*
X18149285Y34994524D01*
X18125476Y34982620D01*
X18065952Y34982620D01*
X18042142Y34994524D01*
X18030238Y35006429D01*
X18018333Y35030239D01*
X18018333Y35077858D01*
X18030238Y35101667D01*
X18042142Y35113572D01*
X18065952Y35125477D01*
X17923095Y34899286D02*
X17923095Y34744524D01*
X18018333Y34827858D01*
X18018333Y34792143D01*
X18030238Y34768334D01*
X18042142Y34756429D01*
X18065952Y34744524D01*
X18125476Y34744524D01*
X18149285Y34756429D01*
X18161190Y34768334D01*
X18173095Y34792143D01*
X18173095Y34863572D01*
X18161190Y34887381D01*
X18149285Y34899286D01*
%TO.C,C65*%
X16539285Y42460715D02*
X16551190Y42472620D01*
X16563095Y42508334D01*
X16563095Y42532143D01*
X16551190Y42567858D01*
X16527380Y42591667D01*
X16503571Y42603572D01*
X16455952Y42615477D01*
X16420238Y42615477D01*
X16372619Y42603572D01*
X16348809Y42591667D01*
X16325000Y42567858D01*
X16313095Y42532143D01*
X16313095Y42508334D01*
X16325000Y42472620D01*
X16336904Y42460715D01*
X16313095Y42246429D02*
X16313095Y42294048D01*
X16325000Y42317858D01*
X16336904Y42329762D01*
X16372619Y42353572D01*
X16420238Y42365477D01*
X16515476Y42365477D01*
X16539285Y42353572D01*
X16551190Y42341667D01*
X16563095Y42317858D01*
X16563095Y42270239D01*
X16551190Y42246429D01*
X16539285Y42234524D01*
X16515476Y42222620D01*
X16455952Y42222620D01*
X16432142Y42234524D01*
X16420238Y42246429D01*
X16408333Y42270239D01*
X16408333Y42317858D01*
X16420238Y42341667D01*
X16432142Y42353572D01*
X16455952Y42365477D01*
X16313095Y41996429D02*
X16313095Y42115477D01*
X16432142Y42127381D01*
X16420238Y42115477D01*
X16408333Y42091667D01*
X16408333Y42032143D01*
X16420238Y42008334D01*
X16432142Y41996429D01*
X16455952Y41984524D01*
X16515476Y41984524D01*
X16539285Y41996429D01*
X16551190Y42008334D01*
X16563095Y42032143D01*
X16563095Y42091667D01*
X16551190Y42115477D01*
X16539285Y42127381D01*
D12*
%TO.C,U3*%
X11357142Y39078572D02*
X11357142Y38592858D01*
X11328571Y38535715D01*
X11300000Y38507143D01*
X11242857Y38478572D01*
X11128571Y38478572D01*
X11071428Y38507143D01*
X11042857Y38535715D01*
X11014285Y38592858D01*
X11014285Y39078572D01*
X10785714Y39078572D02*
X10414285Y39078572D01*
X10614285Y38850000D01*
X10528571Y38850000D01*
X10471428Y38821429D01*
X10442857Y38792858D01*
X10414285Y38735715D01*
X10414285Y38592858D01*
X10442857Y38535715D01*
X10471428Y38507143D01*
X10528571Y38478572D01*
X10700000Y38478572D01*
X10757142Y38507143D01*
X10785714Y38535715D01*
D11*
%TO.C,C8*%
X10929285Y42341667D02*
X10941190Y42353572D01*
X10953095Y42389286D01*
X10953095Y42413096D01*
X10941190Y42448810D01*
X10917380Y42472620D01*
X10893571Y42484524D01*
X10845952Y42496429D01*
X10810238Y42496429D01*
X10762619Y42484524D01*
X10738809Y42472620D01*
X10715000Y42448810D01*
X10703095Y42413096D01*
X10703095Y42389286D01*
X10715000Y42353572D01*
X10726904Y42341667D01*
X10810238Y42198810D02*
X10798333Y42222620D01*
X10786428Y42234524D01*
X10762619Y42246429D01*
X10750714Y42246429D01*
X10726904Y42234524D01*
X10715000Y42222620D01*
X10703095Y42198810D01*
X10703095Y42151191D01*
X10715000Y42127381D01*
X10726904Y42115477D01*
X10750714Y42103572D01*
X10762619Y42103572D01*
X10786428Y42115477D01*
X10798333Y42127381D01*
X10810238Y42151191D01*
X10810238Y42198810D01*
X10822142Y42222620D01*
X10834047Y42234524D01*
X10857857Y42246429D01*
X10905476Y42246429D01*
X10929285Y42234524D01*
X10941190Y42222620D01*
X10953095Y42198810D01*
X10953095Y42151191D01*
X10941190Y42127381D01*
X10929285Y42115477D01*
X10905476Y42103572D01*
X10857857Y42103572D01*
X10834047Y42115477D01*
X10822142Y42127381D01*
X10810238Y42151191D01*
%TO.C,C62*%
X20099285Y38820715D02*
X20111190Y38832620D01*
X20123095Y38868334D01*
X20123095Y38892143D01*
X20111190Y38927858D01*
X20087380Y38951667D01*
X20063571Y38963572D01*
X20015952Y38975477D01*
X19980238Y38975477D01*
X19932619Y38963572D01*
X19908809Y38951667D01*
X19885000Y38927858D01*
X19873095Y38892143D01*
X19873095Y38868334D01*
X19885000Y38832620D01*
X19896904Y38820715D01*
X19873095Y38606429D02*
X19873095Y38654048D01*
X19885000Y38677858D01*
X19896904Y38689762D01*
X19932619Y38713572D01*
X19980238Y38725477D01*
X20075476Y38725477D01*
X20099285Y38713572D01*
X20111190Y38701667D01*
X20123095Y38677858D01*
X20123095Y38630239D01*
X20111190Y38606429D01*
X20099285Y38594524D01*
X20075476Y38582620D01*
X20015952Y38582620D01*
X19992142Y38594524D01*
X19980238Y38606429D01*
X19968333Y38630239D01*
X19968333Y38677858D01*
X19980238Y38701667D01*
X19992142Y38713572D01*
X20015952Y38725477D01*
X19896904Y38487381D02*
X19885000Y38475477D01*
X19873095Y38451667D01*
X19873095Y38392143D01*
X19885000Y38368334D01*
X19896904Y38356429D01*
X19920714Y38344524D01*
X19944523Y38344524D01*
X19980238Y38356429D01*
X20123095Y38499286D01*
X20123095Y38344524D01*
D13*
%TO.C,U19*%
X16559285Y39608572D02*
X17166428Y39608572D01*
X17237857Y39572858D01*
X17273571Y39537143D01*
X17309285Y39465715D01*
X17309285Y39322858D01*
X17273571Y39251429D01*
X17237857Y39215715D01*
X17166428Y39180000D01*
X16559285Y39180000D01*
X17309285Y38430000D02*
X17309285Y38858572D01*
X17309285Y38644286D02*
X16559285Y38644286D01*
X16666428Y38715715D01*
X16737857Y38787143D01*
X16773571Y38858572D01*
X17309285Y38072858D02*
X17309285Y37930000D01*
X17273571Y37858572D01*
X17237857Y37822858D01*
X17130714Y37751429D01*
X16987857Y37715715D01*
X16702142Y37715715D01*
X16630714Y37751429D01*
X16595000Y37787143D01*
X16559285Y37858572D01*
X16559285Y38001429D01*
X16595000Y38072858D01*
X16630714Y38108572D01*
X16702142Y38144286D01*
X16880714Y38144286D01*
X16952142Y38108572D01*
X16987857Y38072858D01*
X17023571Y38001429D01*
X17023571Y37858572D01*
X16987857Y37787143D01*
X16952142Y37751429D01*
X16880714Y37715715D01*
D11*
%TO.C,C64*%
X17429285Y35220715D02*
X17441190Y35232620D01*
X17453095Y35268334D01*
X17453095Y35292143D01*
X17441190Y35327858D01*
X17417380Y35351667D01*
X17393571Y35363572D01*
X17345952Y35375477D01*
X17310238Y35375477D01*
X17262619Y35363572D01*
X17238809Y35351667D01*
X17215000Y35327858D01*
X17203095Y35292143D01*
X17203095Y35268334D01*
X17215000Y35232620D01*
X17226904Y35220715D01*
X17203095Y35006429D02*
X17203095Y35054048D01*
X17215000Y35077858D01*
X17226904Y35089762D01*
X17262619Y35113572D01*
X17310238Y35125477D01*
X17405476Y35125477D01*
X17429285Y35113572D01*
X17441190Y35101667D01*
X17453095Y35077858D01*
X17453095Y35030239D01*
X17441190Y35006429D01*
X17429285Y34994524D01*
X17405476Y34982620D01*
X17345952Y34982620D01*
X17322142Y34994524D01*
X17310238Y35006429D01*
X17298333Y35030239D01*
X17298333Y35077858D01*
X17310238Y35101667D01*
X17322142Y35113572D01*
X17345952Y35125477D01*
X17286428Y34768334D02*
X17453095Y34768334D01*
X17191190Y34827858D02*
X17369761Y34887381D01*
X17369761Y34732620D01*
D14*
%TO.C,U1*%
X14274761Y42379048D02*
X14274761Y42055239D01*
X14255714Y42017143D01*
X14236666Y41998096D01*
X14198571Y41979048D01*
X14122380Y41979048D01*
X14084285Y41998096D01*
X14065238Y42017143D01*
X14046190Y42055239D01*
X14046190Y42379048D01*
X13646190Y41979048D02*
X13874761Y41979048D01*
X13760476Y41979048D02*
X13760476Y42379048D01*
X13798571Y42321905D01*
X13836666Y42283810D01*
X13874761Y42264762D01*
D15*
%TO.C,D2*%
X13155238Y46389048D02*
X13155238Y46789048D01*
X13060000Y46789048D01*
X13002857Y46770000D01*
X12964761Y46731905D01*
X12945714Y46693810D01*
X12926666Y46617620D01*
X12926666Y46560477D01*
X12945714Y46484286D01*
X12964761Y46446191D01*
X13002857Y46408096D01*
X13060000Y46389048D01*
X13155238Y46389048D01*
X12774285Y46750953D02*
X12755238Y46770000D01*
X12717142Y46789048D01*
X12621904Y46789048D01*
X12583809Y46770000D01*
X12564761Y46750953D01*
X12545714Y46712858D01*
X12545714Y46674762D01*
X12564761Y46617620D01*
X12793333Y46389048D01*
X12545714Y46389048D01*
D10*
%TO.C,J3*%
X722380Y25733334D02*
X1436666Y25733334D01*
X1579523Y25780953D01*
X1674761Y25876191D01*
X1722380Y26019048D01*
X1722380Y26114286D01*
X722380Y25352381D02*
X722380Y24733334D01*
X1103333Y25066667D01*
X1103333Y24923810D01*
X1150952Y24828572D01*
X1198571Y24780953D01*
X1293809Y24733334D01*
X1531904Y24733334D01*
X1627142Y24780953D01*
X1674761Y24828572D01*
X1722380Y24923810D01*
X1722380Y25209524D01*
X1674761Y25304762D01*
X1627142Y25352381D01*
%TO.C,J5*%
X3262380Y25733334D02*
X3976666Y25733334D01*
X4119523Y25780953D01*
X4214761Y25876191D01*
X4262380Y26019048D01*
X4262380Y26114286D01*
X3262380Y24780953D02*
X3262380Y25257143D01*
X3738571Y25304762D01*
X3690952Y25257143D01*
X3643333Y25161905D01*
X3643333Y24923810D01*
X3690952Y24828572D01*
X3738571Y24780953D01*
X3833809Y24733334D01*
X4071904Y24733334D01*
X4167142Y24780953D01*
X4214761Y24828572D01*
X4262380Y24923810D01*
X4262380Y25161905D01*
X4214761Y25257143D01*
X4167142Y25304762D01*
D11*
%TO.C,C55*%
X14510714Y7710715D02*
X14522619Y7698810D01*
X14558333Y7686905D01*
X14582142Y7686905D01*
X14617857Y7698810D01*
X14641666Y7722620D01*
X14653571Y7746429D01*
X14665476Y7794048D01*
X14665476Y7829762D01*
X14653571Y7877381D01*
X14641666Y7901191D01*
X14617857Y7925000D01*
X14582142Y7936905D01*
X14558333Y7936905D01*
X14522619Y7925000D01*
X14510714Y7913096D01*
X14284523Y7936905D02*
X14403571Y7936905D01*
X14415476Y7817858D01*
X14403571Y7829762D01*
X14379761Y7841667D01*
X14320238Y7841667D01*
X14296428Y7829762D01*
X14284523Y7817858D01*
X14272619Y7794048D01*
X14272619Y7734524D01*
X14284523Y7710715D01*
X14296428Y7698810D01*
X14320238Y7686905D01*
X14379761Y7686905D01*
X14403571Y7698810D01*
X14415476Y7710715D01*
X14046428Y7936905D02*
X14165476Y7936905D01*
X14177380Y7817858D01*
X14165476Y7829762D01*
X14141666Y7841667D01*
X14082142Y7841667D01*
X14058333Y7829762D01*
X14046428Y7817858D01*
X14034523Y7794048D01*
X14034523Y7734524D01*
X14046428Y7710715D01*
X14058333Y7698810D01*
X14082142Y7686905D01*
X14141666Y7686905D01*
X14165476Y7698810D01*
X14177380Y7710715D01*
%TO.C,C38*%
X20109285Y41660715D02*
X20121190Y41672620D01*
X20133095Y41708334D01*
X20133095Y41732143D01*
X20121190Y41767858D01*
X20097380Y41791667D01*
X20073571Y41803572D01*
X20025952Y41815477D01*
X19990238Y41815477D01*
X19942619Y41803572D01*
X19918809Y41791667D01*
X19895000Y41767858D01*
X19883095Y41732143D01*
X19883095Y41708334D01*
X19895000Y41672620D01*
X19906904Y41660715D01*
X19883095Y41577381D02*
X19883095Y41422620D01*
X19978333Y41505953D01*
X19978333Y41470239D01*
X19990238Y41446429D01*
X20002142Y41434524D01*
X20025952Y41422620D01*
X20085476Y41422620D01*
X20109285Y41434524D01*
X20121190Y41446429D01*
X20133095Y41470239D01*
X20133095Y41541667D01*
X20121190Y41565477D01*
X20109285Y41577381D01*
X19990238Y41279762D02*
X19978333Y41303572D01*
X19966428Y41315477D01*
X19942619Y41327381D01*
X19930714Y41327381D01*
X19906904Y41315477D01*
X19895000Y41303572D01*
X19883095Y41279762D01*
X19883095Y41232143D01*
X19895000Y41208334D01*
X19906904Y41196429D01*
X19930714Y41184524D01*
X19942619Y41184524D01*
X19966428Y41196429D01*
X19978333Y41208334D01*
X19990238Y41232143D01*
X19990238Y41279762D01*
X20002142Y41303572D01*
X20014047Y41315477D01*
X20037857Y41327381D01*
X20085476Y41327381D01*
X20109285Y41315477D01*
X20121190Y41303572D01*
X20133095Y41279762D01*
X20133095Y41232143D01*
X20121190Y41208334D01*
X20109285Y41196429D01*
X20085476Y41184524D01*
X20037857Y41184524D01*
X20014047Y41196429D01*
X20002142Y41208334D01*
X19990238Y41232143D01*
%TO.C,C57*%
X17200714Y7710715D02*
X17212619Y7698810D01*
X17248333Y7686905D01*
X17272142Y7686905D01*
X17307857Y7698810D01*
X17331666Y7722620D01*
X17343571Y7746429D01*
X17355476Y7794048D01*
X17355476Y7829762D01*
X17343571Y7877381D01*
X17331666Y7901191D01*
X17307857Y7925000D01*
X17272142Y7936905D01*
X17248333Y7936905D01*
X17212619Y7925000D01*
X17200714Y7913096D01*
X16974523Y7936905D02*
X17093571Y7936905D01*
X17105476Y7817858D01*
X17093571Y7829762D01*
X17069761Y7841667D01*
X17010238Y7841667D01*
X16986428Y7829762D01*
X16974523Y7817858D01*
X16962619Y7794048D01*
X16962619Y7734524D01*
X16974523Y7710715D01*
X16986428Y7698810D01*
X17010238Y7686905D01*
X17069761Y7686905D01*
X17093571Y7698810D01*
X17105476Y7710715D01*
X16879285Y7936905D02*
X16712619Y7936905D01*
X16819761Y7686905D01*
D10*
%TO.C,U16*%
X15208095Y12197620D02*
X15208095Y11388096D01*
X15160476Y11292858D01*
X15112857Y11245239D01*
X15017619Y11197620D01*
X14827142Y11197620D01*
X14731904Y11245239D01*
X14684285Y11292858D01*
X14636666Y11388096D01*
X14636666Y12197620D01*
X13636666Y11197620D02*
X14208095Y11197620D01*
X13922380Y11197620D02*
X13922380Y12197620D01*
X14017619Y12054762D01*
X14112857Y11959524D01*
X14208095Y11911905D01*
X12779523Y12197620D02*
X12970000Y12197620D01*
X13065238Y12150000D01*
X13112857Y12102381D01*
X13208095Y11959524D01*
X13255714Y11769048D01*
X13255714Y11388096D01*
X13208095Y11292858D01*
X13160476Y11245239D01*
X13065238Y11197620D01*
X12874761Y11197620D01*
X12779523Y11245239D01*
X12731904Y11292858D01*
X12684285Y11388096D01*
X12684285Y11626191D01*
X12731904Y11721429D01*
X12779523Y11769048D01*
X12874761Y11816667D01*
X13065238Y11816667D01*
X13160476Y11769048D01*
X13208095Y11721429D01*
X13255714Y11626191D01*
D11*
%TO.C,C2*%
X8579285Y22431667D02*
X8591190Y22443572D01*
X8603095Y22479286D01*
X8603095Y22503096D01*
X8591190Y22538810D01*
X8567380Y22562620D01*
X8543571Y22574524D01*
X8495952Y22586429D01*
X8460238Y22586429D01*
X8412619Y22574524D01*
X8388809Y22562620D01*
X8365000Y22538810D01*
X8353095Y22503096D01*
X8353095Y22479286D01*
X8365000Y22443572D01*
X8376904Y22431667D01*
X8376904Y22336429D02*
X8365000Y22324524D01*
X8353095Y22300715D01*
X8353095Y22241191D01*
X8365000Y22217381D01*
X8376904Y22205477D01*
X8400714Y22193572D01*
X8424523Y22193572D01*
X8460238Y22205477D01*
X8603095Y22348334D01*
X8603095Y22193572D01*
%TO.C,C1*%
X9289285Y22411667D02*
X9301190Y22423572D01*
X9313095Y22459286D01*
X9313095Y22483096D01*
X9301190Y22518810D01*
X9277380Y22542620D01*
X9253571Y22554524D01*
X9205952Y22566429D01*
X9170238Y22566429D01*
X9122619Y22554524D01*
X9098809Y22542620D01*
X9075000Y22518810D01*
X9063095Y22483096D01*
X9063095Y22459286D01*
X9075000Y22423572D01*
X9086904Y22411667D01*
X9313095Y22173572D02*
X9313095Y22316429D01*
X9313095Y22245000D02*
X9063095Y22245000D01*
X9098809Y22268810D01*
X9122619Y22292620D01*
X9134523Y22316429D01*
%TO.C,R16*%
X13100714Y7676905D02*
X13184047Y7795953D01*
X13243571Y7676905D02*
X13243571Y7926905D01*
X13148333Y7926905D01*
X13124523Y7915000D01*
X13112619Y7903096D01*
X13100714Y7879286D01*
X13100714Y7843572D01*
X13112619Y7819762D01*
X13124523Y7807858D01*
X13148333Y7795953D01*
X13243571Y7795953D01*
X12862619Y7676905D02*
X13005476Y7676905D01*
X12934047Y7676905D02*
X12934047Y7926905D01*
X12957857Y7891191D01*
X12981666Y7867381D01*
X13005476Y7855477D01*
X12648333Y7926905D02*
X12695952Y7926905D01*
X12719761Y7915000D01*
X12731666Y7903096D01*
X12755476Y7867381D01*
X12767380Y7819762D01*
X12767380Y7724524D01*
X12755476Y7700715D01*
X12743571Y7688810D01*
X12719761Y7676905D01*
X12672142Y7676905D01*
X12648333Y7688810D01*
X12636428Y7700715D01*
X12624523Y7724524D01*
X12624523Y7784048D01*
X12636428Y7807858D01*
X12648333Y7819762D01*
X12672142Y7831667D01*
X12719761Y7831667D01*
X12743571Y7819762D01*
X12755476Y7807858D01*
X12767380Y7784048D01*
%TO.C,C5*%
X17521666Y23590715D02*
X17533571Y23578810D01*
X17569285Y23566905D01*
X17593095Y23566905D01*
X17628809Y23578810D01*
X17652619Y23602620D01*
X17664523Y23626429D01*
X17676428Y23674048D01*
X17676428Y23709762D01*
X17664523Y23757381D01*
X17652619Y23781191D01*
X17628809Y23805000D01*
X17593095Y23816905D01*
X17569285Y23816905D01*
X17533571Y23805000D01*
X17521666Y23793096D01*
X17295476Y23816905D02*
X17414523Y23816905D01*
X17426428Y23697858D01*
X17414523Y23709762D01*
X17390714Y23721667D01*
X17331190Y23721667D01*
X17307380Y23709762D01*
X17295476Y23697858D01*
X17283571Y23674048D01*
X17283571Y23614524D01*
X17295476Y23590715D01*
X17307380Y23578810D01*
X17331190Y23566905D01*
X17390714Y23566905D01*
X17414523Y23578810D01*
X17426428Y23590715D01*
%TO.C,R8*%
X17511666Y25116905D02*
X17595000Y25235953D01*
X17654523Y25116905D02*
X17654523Y25366905D01*
X17559285Y25366905D01*
X17535476Y25355000D01*
X17523571Y25343096D01*
X17511666Y25319286D01*
X17511666Y25283572D01*
X17523571Y25259762D01*
X17535476Y25247858D01*
X17559285Y25235953D01*
X17654523Y25235953D01*
X17368809Y25259762D02*
X17392619Y25271667D01*
X17404523Y25283572D01*
X17416428Y25307381D01*
X17416428Y25319286D01*
X17404523Y25343096D01*
X17392619Y25355000D01*
X17368809Y25366905D01*
X17321190Y25366905D01*
X17297380Y25355000D01*
X17285476Y25343096D01*
X17273571Y25319286D01*
X17273571Y25307381D01*
X17285476Y25283572D01*
X17297380Y25271667D01*
X17321190Y25259762D01*
X17368809Y25259762D01*
X17392619Y25247858D01*
X17404523Y25235953D01*
X17416428Y25212143D01*
X17416428Y25164524D01*
X17404523Y25140715D01*
X17392619Y25128810D01*
X17368809Y25116905D01*
X17321190Y25116905D01*
X17297380Y25128810D01*
X17285476Y25140715D01*
X17273571Y25164524D01*
X17273571Y25212143D01*
X17285476Y25235953D01*
X17297380Y25247858D01*
X17321190Y25259762D01*
%TO.C,C25*%
X16240714Y22920715D02*
X16252619Y22908810D01*
X16288333Y22896905D01*
X16312142Y22896905D01*
X16347857Y22908810D01*
X16371666Y22932620D01*
X16383571Y22956429D01*
X16395476Y23004048D01*
X16395476Y23039762D01*
X16383571Y23087381D01*
X16371666Y23111191D01*
X16347857Y23135000D01*
X16312142Y23146905D01*
X16288333Y23146905D01*
X16252619Y23135000D01*
X16240714Y23123096D01*
X16145476Y23123096D02*
X16133571Y23135000D01*
X16109761Y23146905D01*
X16050238Y23146905D01*
X16026428Y23135000D01*
X16014523Y23123096D01*
X16002619Y23099286D01*
X16002619Y23075477D01*
X16014523Y23039762D01*
X16157380Y22896905D01*
X16002619Y22896905D01*
X15776428Y23146905D02*
X15895476Y23146905D01*
X15907380Y23027858D01*
X15895476Y23039762D01*
X15871666Y23051667D01*
X15812142Y23051667D01*
X15788333Y23039762D01*
X15776428Y23027858D01*
X15764523Y23004048D01*
X15764523Y22944524D01*
X15776428Y22920715D01*
X15788333Y22908810D01*
X15812142Y22896905D01*
X15871666Y22896905D01*
X15895476Y22908810D01*
X15907380Y22920715D01*
%TO.C,C16*%
X9940714Y22530715D02*
X9952619Y22518810D01*
X9988333Y22506905D01*
X10012142Y22506905D01*
X10047857Y22518810D01*
X10071666Y22542620D01*
X10083571Y22566429D01*
X10095476Y22614048D01*
X10095476Y22649762D01*
X10083571Y22697381D01*
X10071666Y22721191D01*
X10047857Y22745000D01*
X10012142Y22756905D01*
X9988333Y22756905D01*
X9952619Y22745000D01*
X9940714Y22733096D01*
X9702619Y22506905D02*
X9845476Y22506905D01*
X9774047Y22506905D02*
X9774047Y22756905D01*
X9797857Y22721191D01*
X9821666Y22697381D01*
X9845476Y22685477D01*
X9488333Y22756905D02*
X9535952Y22756905D01*
X9559761Y22745000D01*
X9571666Y22733096D01*
X9595476Y22697381D01*
X9607380Y22649762D01*
X9607380Y22554524D01*
X9595476Y22530715D01*
X9583571Y22518810D01*
X9559761Y22506905D01*
X9512142Y22506905D01*
X9488333Y22518810D01*
X9476428Y22530715D01*
X9464523Y22554524D01*
X9464523Y22614048D01*
X9476428Y22637858D01*
X9488333Y22649762D01*
X9512142Y22661667D01*
X9559761Y22661667D01*
X9583571Y22649762D01*
X9595476Y22637858D01*
X9607380Y22614048D01*
%TO.C,C58*%
X12820714Y16760715D02*
X12832619Y16748810D01*
X12868333Y16736905D01*
X12892142Y16736905D01*
X12927857Y16748810D01*
X12951666Y16772620D01*
X12963571Y16796429D01*
X12975476Y16844048D01*
X12975476Y16879762D01*
X12963571Y16927381D01*
X12951666Y16951191D01*
X12927857Y16975000D01*
X12892142Y16986905D01*
X12868333Y16986905D01*
X12832619Y16975000D01*
X12820714Y16963096D01*
X12594523Y16986905D02*
X12713571Y16986905D01*
X12725476Y16867858D01*
X12713571Y16879762D01*
X12689761Y16891667D01*
X12630238Y16891667D01*
X12606428Y16879762D01*
X12594523Y16867858D01*
X12582619Y16844048D01*
X12582619Y16784524D01*
X12594523Y16760715D01*
X12606428Y16748810D01*
X12630238Y16736905D01*
X12689761Y16736905D01*
X12713571Y16748810D01*
X12725476Y16760715D01*
X12439761Y16879762D02*
X12463571Y16891667D01*
X12475476Y16903572D01*
X12487380Y16927381D01*
X12487380Y16939286D01*
X12475476Y16963096D01*
X12463571Y16975000D01*
X12439761Y16986905D01*
X12392142Y16986905D01*
X12368333Y16975000D01*
X12356428Y16963096D01*
X12344523Y16939286D01*
X12344523Y16927381D01*
X12356428Y16903572D01*
X12368333Y16891667D01*
X12392142Y16879762D01*
X12439761Y16879762D01*
X12463571Y16867858D01*
X12475476Y16855953D01*
X12487380Y16832143D01*
X12487380Y16784524D01*
X12475476Y16760715D01*
X12463571Y16748810D01*
X12439761Y16736905D01*
X12392142Y16736905D01*
X12368333Y16748810D01*
X12356428Y16760715D01*
X12344523Y16784524D01*
X12344523Y16832143D01*
X12356428Y16855953D01*
X12368333Y16867858D01*
X12392142Y16879762D01*
%TO.C,R22*%
X9900714Y18116905D02*
X9984047Y18235953D01*
X10043571Y18116905D02*
X10043571Y18366905D01*
X9948333Y18366905D01*
X9924523Y18355000D01*
X9912619Y18343096D01*
X9900714Y18319286D01*
X9900714Y18283572D01*
X9912619Y18259762D01*
X9924523Y18247858D01*
X9948333Y18235953D01*
X10043571Y18235953D01*
X9805476Y18343096D02*
X9793571Y18355000D01*
X9769761Y18366905D01*
X9710238Y18366905D01*
X9686428Y18355000D01*
X9674523Y18343096D01*
X9662619Y18319286D01*
X9662619Y18295477D01*
X9674523Y18259762D01*
X9817380Y18116905D01*
X9662619Y18116905D01*
X9567380Y18343096D02*
X9555476Y18355000D01*
X9531666Y18366905D01*
X9472142Y18366905D01*
X9448333Y18355000D01*
X9436428Y18343096D01*
X9424523Y18319286D01*
X9424523Y18295477D01*
X9436428Y18259762D01*
X9579285Y18116905D01*
X9424523Y18116905D01*
%TO.C,C30*%
X12070714Y19190715D02*
X12082619Y19178810D01*
X12118333Y19166905D01*
X12142142Y19166905D01*
X12177857Y19178810D01*
X12201666Y19202620D01*
X12213571Y19226429D01*
X12225476Y19274048D01*
X12225476Y19309762D01*
X12213571Y19357381D01*
X12201666Y19381191D01*
X12177857Y19405000D01*
X12142142Y19416905D01*
X12118333Y19416905D01*
X12082619Y19405000D01*
X12070714Y19393096D01*
X11987380Y19416905D02*
X11832619Y19416905D01*
X11915952Y19321667D01*
X11880238Y19321667D01*
X11856428Y19309762D01*
X11844523Y19297858D01*
X11832619Y19274048D01*
X11832619Y19214524D01*
X11844523Y19190715D01*
X11856428Y19178810D01*
X11880238Y19166905D01*
X11951666Y19166905D01*
X11975476Y19178810D01*
X11987380Y19190715D01*
X11677857Y19416905D02*
X11654047Y19416905D01*
X11630238Y19405000D01*
X11618333Y19393096D01*
X11606428Y19369286D01*
X11594523Y19321667D01*
X11594523Y19262143D01*
X11606428Y19214524D01*
X11618333Y19190715D01*
X11630238Y19178810D01*
X11654047Y19166905D01*
X11677857Y19166905D01*
X11701666Y19178810D01*
X11713571Y19190715D01*
X11725476Y19214524D01*
X11737380Y19262143D01*
X11737380Y19321667D01*
X11725476Y19369286D01*
X11713571Y19393096D01*
X11701666Y19405000D01*
X11677857Y19416905D01*
%TO.C,C66*%
X20109285Y37430715D02*
X20121190Y37442620D01*
X20133095Y37478334D01*
X20133095Y37502143D01*
X20121190Y37537858D01*
X20097380Y37561667D01*
X20073571Y37573572D01*
X20025952Y37585477D01*
X19990238Y37585477D01*
X19942619Y37573572D01*
X19918809Y37561667D01*
X19895000Y37537858D01*
X19883095Y37502143D01*
X19883095Y37478334D01*
X19895000Y37442620D01*
X19906904Y37430715D01*
X19883095Y37216429D02*
X19883095Y37264048D01*
X19895000Y37287858D01*
X19906904Y37299762D01*
X19942619Y37323572D01*
X19990238Y37335477D01*
X20085476Y37335477D01*
X20109285Y37323572D01*
X20121190Y37311667D01*
X20133095Y37287858D01*
X20133095Y37240239D01*
X20121190Y37216429D01*
X20109285Y37204524D01*
X20085476Y37192620D01*
X20025952Y37192620D01*
X20002142Y37204524D01*
X19990238Y37216429D01*
X19978333Y37240239D01*
X19978333Y37287858D01*
X19990238Y37311667D01*
X20002142Y37323572D01*
X20025952Y37335477D01*
X19883095Y36978334D02*
X19883095Y37025953D01*
X19895000Y37049762D01*
X19906904Y37061667D01*
X19942619Y37085477D01*
X19990238Y37097381D01*
X20085476Y37097381D01*
X20109285Y37085477D01*
X20121190Y37073572D01*
X20133095Y37049762D01*
X20133095Y37002143D01*
X20121190Y36978334D01*
X20109285Y36966429D01*
X20085476Y36954524D01*
X20025952Y36954524D01*
X20002142Y36966429D01*
X19990238Y36978334D01*
X19978333Y37002143D01*
X19978333Y37049762D01*
X19990238Y37073572D01*
X20002142Y37085477D01*
X20025952Y37097381D01*
%TO.C,C39*%
X11360714Y21870715D02*
X11372619Y21858810D01*
X11408333Y21846905D01*
X11432142Y21846905D01*
X11467857Y21858810D01*
X11491666Y21882620D01*
X11503571Y21906429D01*
X11515476Y21954048D01*
X11515476Y21989762D01*
X11503571Y22037381D01*
X11491666Y22061191D01*
X11467857Y22085000D01*
X11432142Y22096905D01*
X11408333Y22096905D01*
X11372619Y22085000D01*
X11360714Y22073096D01*
X11277380Y22096905D02*
X11122619Y22096905D01*
X11205952Y22001667D01*
X11170238Y22001667D01*
X11146428Y21989762D01*
X11134523Y21977858D01*
X11122619Y21954048D01*
X11122619Y21894524D01*
X11134523Y21870715D01*
X11146428Y21858810D01*
X11170238Y21846905D01*
X11241666Y21846905D01*
X11265476Y21858810D01*
X11277380Y21870715D01*
X11003571Y21846905D02*
X10955952Y21846905D01*
X10932142Y21858810D01*
X10920238Y21870715D01*
X10896428Y21906429D01*
X10884523Y21954048D01*
X10884523Y22049286D01*
X10896428Y22073096D01*
X10908333Y22085000D01*
X10932142Y22096905D01*
X10979761Y22096905D01*
X11003571Y22085000D01*
X11015476Y22073096D01*
X11027380Y22049286D01*
X11027380Y21989762D01*
X11015476Y21965953D01*
X11003571Y21954048D01*
X10979761Y21942143D01*
X10932142Y21942143D01*
X10908333Y21954048D01*
X10896428Y21965953D01*
X10884523Y21989762D01*
%TO.C,C37*%
X16260714Y22190715D02*
X16272619Y22178810D01*
X16308333Y22166905D01*
X16332142Y22166905D01*
X16367857Y22178810D01*
X16391666Y22202620D01*
X16403571Y22226429D01*
X16415476Y22274048D01*
X16415476Y22309762D01*
X16403571Y22357381D01*
X16391666Y22381191D01*
X16367857Y22405000D01*
X16332142Y22416905D01*
X16308333Y22416905D01*
X16272619Y22405000D01*
X16260714Y22393096D01*
X16177380Y22416905D02*
X16022619Y22416905D01*
X16105952Y22321667D01*
X16070238Y22321667D01*
X16046428Y22309762D01*
X16034523Y22297858D01*
X16022619Y22274048D01*
X16022619Y22214524D01*
X16034523Y22190715D01*
X16046428Y22178810D01*
X16070238Y22166905D01*
X16141666Y22166905D01*
X16165476Y22178810D01*
X16177380Y22190715D01*
X15939285Y22416905D02*
X15772619Y22416905D01*
X15879761Y22166905D01*
%TO.C,C53*%
X14429285Y20250715D02*
X14441190Y20262620D01*
X14453095Y20298334D01*
X14453095Y20322143D01*
X14441190Y20357858D01*
X14417380Y20381667D01*
X14393571Y20393572D01*
X14345952Y20405477D01*
X14310238Y20405477D01*
X14262619Y20393572D01*
X14238809Y20381667D01*
X14215000Y20357858D01*
X14203095Y20322143D01*
X14203095Y20298334D01*
X14215000Y20262620D01*
X14226904Y20250715D01*
X14203095Y20024524D02*
X14203095Y20143572D01*
X14322142Y20155477D01*
X14310238Y20143572D01*
X14298333Y20119762D01*
X14298333Y20060239D01*
X14310238Y20036429D01*
X14322142Y20024524D01*
X14345952Y20012620D01*
X14405476Y20012620D01*
X14429285Y20024524D01*
X14441190Y20036429D01*
X14453095Y20060239D01*
X14453095Y20119762D01*
X14441190Y20143572D01*
X14429285Y20155477D01*
X14203095Y19929286D02*
X14203095Y19774524D01*
X14298333Y19857858D01*
X14298333Y19822143D01*
X14310238Y19798334D01*
X14322142Y19786429D01*
X14345952Y19774524D01*
X14405476Y19774524D01*
X14429285Y19786429D01*
X14441190Y19798334D01*
X14453095Y19822143D01*
X14453095Y19893572D01*
X14441190Y19917381D01*
X14429285Y19929286D01*
%TO.C,C24*%
X14429285Y24560715D02*
X14441190Y24572620D01*
X14453095Y24608334D01*
X14453095Y24632143D01*
X14441190Y24667858D01*
X14417380Y24691667D01*
X14393571Y24703572D01*
X14345952Y24715477D01*
X14310238Y24715477D01*
X14262619Y24703572D01*
X14238809Y24691667D01*
X14215000Y24667858D01*
X14203095Y24632143D01*
X14203095Y24608334D01*
X14215000Y24572620D01*
X14226904Y24560715D01*
X14226904Y24465477D02*
X14215000Y24453572D01*
X14203095Y24429762D01*
X14203095Y24370239D01*
X14215000Y24346429D01*
X14226904Y24334524D01*
X14250714Y24322620D01*
X14274523Y24322620D01*
X14310238Y24334524D01*
X14453095Y24477381D01*
X14453095Y24322620D01*
X14286428Y24108334D02*
X14453095Y24108334D01*
X14191190Y24167858D02*
X14369761Y24227381D01*
X14369761Y24072620D01*
%TO.C,R21*%
X9043095Y19460715D02*
X8924047Y19544048D01*
X9043095Y19603572D02*
X8793095Y19603572D01*
X8793095Y19508334D01*
X8805000Y19484524D01*
X8816904Y19472620D01*
X8840714Y19460715D01*
X8876428Y19460715D01*
X8900238Y19472620D01*
X8912142Y19484524D01*
X8924047Y19508334D01*
X8924047Y19603572D01*
X8816904Y19365477D02*
X8805000Y19353572D01*
X8793095Y19329762D01*
X8793095Y19270239D01*
X8805000Y19246429D01*
X8816904Y19234524D01*
X8840714Y19222620D01*
X8864523Y19222620D01*
X8900238Y19234524D01*
X9043095Y19377381D01*
X9043095Y19222620D01*
X9043095Y18984524D02*
X9043095Y19127381D01*
X9043095Y19055953D02*
X8793095Y19055953D01*
X8828809Y19079762D01*
X8852619Y19103572D01*
X8864523Y19127381D01*
%TO.C,C36*%
X12080714Y19910715D02*
X12092619Y19898810D01*
X12128333Y19886905D01*
X12152142Y19886905D01*
X12187857Y19898810D01*
X12211666Y19922620D01*
X12223571Y19946429D01*
X12235476Y19994048D01*
X12235476Y20029762D01*
X12223571Y20077381D01*
X12211666Y20101191D01*
X12187857Y20125000D01*
X12152142Y20136905D01*
X12128333Y20136905D01*
X12092619Y20125000D01*
X12080714Y20113096D01*
X11997380Y20136905D02*
X11842619Y20136905D01*
X11925952Y20041667D01*
X11890238Y20041667D01*
X11866428Y20029762D01*
X11854523Y20017858D01*
X11842619Y19994048D01*
X11842619Y19934524D01*
X11854523Y19910715D01*
X11866428Y19898810D01*
X11890238Y19886905D01*
X11961666Y19886905D01*
X11985476Y19898810D01*
X11997380Y19910715D01*
X11628333Y20136905D02*
X11675952Y20136905D01*
X11699761Y20125000D01*
X11711666Y20113096D01*
X11735476Y20077381D01*
X11747380Y20029762D01*
X11747380Y19934524D01*
X11735476Y19910715D01*
X11723571Y19898810D01*
X11699761Y19886905D01*
X11652142Y19886905D01*
X11628333Y19898810D01*
X11616428Y19910715D01*
X11604523Y19934524D01*
X11604523Y19994048D01*
X11616428Y20017858D01*
X11628333Y20029762D01*
X11652142Y20041667D01*
X11699761Y20041667D01*
X11723571Y20029762D01*
X11735476Y20017858D01*
X11747380Y19994048D01*
%TO.C,U11*%
X15973095Y21109524D02*
X16175476Y21109524D01*
X16199285Y21097620D01*
X16211190Y21085715D01*
X16223095Y21061905D01*
X16223095Y21014286D01*
X16211190Y20990477D01*
X16199285Y20978572D01*
X16175476Y20966667D01*
X15973095Y20966667D01*
X16223095Y20716667D02*
X16223095Y20859524D01*
X16223095Y20788096D02*
X15973095Y20788096D01*
X16008809Y20811905D01*
X16032619Y20835715D01*
X16044523Y20859524D01*
X16223095Y20478572D02*
X16223095Y20621429D01*
X16223095Y20550000D02*
X15973095Y20550000D01*
X16008809Y20573810D01*
X16032619Y20597620D01*
X16044523Y20621429D01*
%TO.C,C59*%
X12790714Y17460715D02*
X12802619Y17448810D01*
X12838333Y17436905D01*
X12862142Y17436905D01*
X12897857Y17448810D01*
X12921666Y17472620D01*
X12933571Y17496429D01*
X12945476Y17544048D01*
X12945476Y17579762D01*
X12933571Y17627381D01*
X12921666Y17651191D01*
X12897857Y17675000D01*
X12862142Y17686905D01*
X12838333Y17686905D01*
X12802619Y17675000D01*
X12790714Y17663096D01*
X12564523Y17686905D02*
X12683571Y17686905D01*
X12695476Y17567858D01*
X12683571Y17579762D01*
X12659761Y17591667D01*
X12600238Y17591667D01*
X12576428Y17579762D01*
X12564523Y17567858D01*
X12552619Y17544048D01*
X12552619Y17484524D01*
X12564523Y17460715D01*
X12576428Y17448810D01*
X12600238Y17436905D01*
X12659761Y17436905D01*
X12683571Y17448810D01*
X12695476Y17460715D01*
X12433571Y17436905D02*
X12385952Y17436905D01*
X12362142Y17448810D01*
X12350238Y17460715D01*
X12326428Y17496429D01*
X12314523Y17544048D01*
X12314523Y17639286D01*
X12326428Y17663096D01*
X12338333Y17675000D01*
X12362142Y17686905D01*
X12409761Y17686905D01*
X12433571Y17675000D01*
X12445476Y17663096D01*
X12457380Y17639286D01*
X12457380Y17579762D01*
X12445476Y17555953D01*
X12433571Y17544048D01*
X12409761Y17532143D01*
X12362142Y17532143D01*
X12338333Y17544048D01*
X12326428Y17555953D01*
X12314523Y17579762D01*
%TO.C,C49*%
X12999285Y20300715D02*
X13011190Y20312620D01*
X13023095Y20348334D01*
X13023095Y20372143D01*
X13011190Y20407858D01*
X12987380Y20431667D01*
X12963571Y20443572D01*
X12915952Y20455477D01*
X12880238Y20455477D01*
X12832619Y20443572D01*
X12808809Y20431667D01*
X12785000Y20407858D01*
X12773095Y20372143D01*
X12773095Y20348334D01*
X12785000Y20312620D01*
X12796904Y20300715D01*
X12856428Y20086429D02*
X13023095Y20086429D01*
X12761190Y20145953D02*
X12939761Y20205477D01*
X12939761Y20050715D01*
X13023095Y19943572D02*
X13023095Y19895953D01*
X13011190Y19872143D01*
X12999285Y19860239D01*
X12963571Y19836429D01*
X12915952Y19824524D01*
X12820714Y19824524D01*
X12796904Y19836429D01*
X12785000Y19848334D01*
X12773095Y19872143D01*
X12773095Y19919762D01*
X12785000Y19943572D01*
X12796904Y19955477D01*
X12820714Y19967381D01*
X12880238Y19967381D01*
X12904047Y19955477D01*
X12915952Y19943572D01*
X12927857Y19919762D01*
X12927857Y19872143D01*
X12915952Y19848334D01*
X12904047Y19836429D01*
X12880238Y19824524D01*
%TO.C,C52*%
X14429285Y21640715D02*
X14441190Y21652620D01*
X14453095Y21688334D01*
X14453095Y21712143D01*
X14441190Y21747858D01*
X14417380Y21771667D01*
X14393571Y21783572D01*
X14345952Y21795477D01*
X14310238Y21795477D01*
X14262619Y21783572D01*
X14238809Y21771667D01*
X14215000Y21747858D01*
X14203095Y21712143D01*
X14203095Y21688334D01*
X14215000Y21652620D01*
X14226904Y21640715D01*
X14203095Y21414524D02*
X14203095Y21533572D01*
X14322142Y21545477D01*
X14310238Y21533572D01*
X14298333Y21509762D01*
X14298333Y21450239D01*
X14310238Y21426429D01*
X14322142Y21414524D01*
X14345952Y21402620D01*
X14405476Y21402620D01*
X14429285Y21414524D01*
X14441190Y21426429D01*
X14453095Y21450239D01*
X14453095Y21509762D01*
X14441190Y21533572D01*
X14429285Y21545477D01*
X14226904Y21307381D02*
X14215000Y21295477D01*
X14203095Y21271667D01*
X14203095Y21212143D01*
X14215000Y21188334D01*
X14226904Y21176429D01*
X14250714Y21164524D01*
X14274523Y21164524D01*
X14310238Y21176429D01*
X14453095Y21319286D01*
X14453095Y21164524D01*
%TO.C,C44*%
X18420714Y19570715D02*
X18432619Y19558810D01*
X18468333Y19546905D01*
X18492142Y19546905D01*
X18527857Y19558810D01*
X18551666Y19582620D01*
X18563571Y19606429D01*
X18575476Y19654048D01*
X18575476Y19689762D01*
X18563571Y19737381D01*
X18551666Y19761191D01*
X18527857Y19785000D01*
X18492142Y19796905D01*
X18468333Y19796905D01*
X18432619Y19785000D01*
X18420714Y19773096D01*
X18206428Y19713572D02*
X18206428Y19546905D01*
X18265952Y19808810D02*
X18325476Y19630239D01*
X18170714Y19630239D01*
X17968333Y19713572D02*
X17968333Y19546905D01*
X18027857Y19808810D02*
X18087380Y19630239D01*
X17932619Y19630239D01*
%TO.C,C17*%
X9960714Y21840715D02*
X9972619Y21828810D01*
X10008333Y21816905D01*
X10032142Y21816905D01*
X10067857Y21828810D01*
X10091666Y21852620D01*
X10103571Y21876429D01*
X10115476Y21924048D01*
X10115476Y21959762D01*
X10103571Y22007381D01*
X10091666Y22031191D01*
X10067857Y22055000D01*
X10032142Y22066905D01*
X10008333Y22066905D01*
X9972619Y22055000D01*
X9960714Y22043096D01*
X9722619Y21816905D02*
X9865476Y21816905D01*
X9794047Y21816905D02*
X9794047Y22066905D01*
X9817857Y22031191D01*
X9841666Y22007381D01*
X9865476Y21995477D01*
X9639285Y22066905D02*
X9472619Y22066905D01*
X9579761Y21816905D01*
%TO.C,R5*%
X19123095Y23001667D02*
X19004047Y23085000D01*
X19123095Y23144524D02*
X18873095Y23144524D01*
X18873095Y23049286D01*
X18885000Y23025477D01*
X18896904Y23013572D01*
X18920714Y23001667D01*
X18956428Y23001667D01*
X18980238Y23013572D01*
X18992142Y23025477D01*
X19004047Y23049286D01*
X19004047Y23144524D01*
X18873095Y22775477D02*
X18873095Y22894524D01*
X18992142Y22906429D01*
X18980238Y22894524D01*
X18968333Y22870715D01*
X18968333Y22811191D01*
X18980238Y22787381D01*
X18992142Y22775477D01*
X19015952Y22763572D01*
X19075476Y22763572D01*
X19099285Y22775477D01*
X19111190Y22787381D01*
X19123095Y22811191D01*
X19123095Y22870715D01*
X19111190Y22894524D01*
X19099285Y22906429D01*
%TO.C,R9*%
X16111666Y25116905D02*
X16195000Y25235953D01*
X16254523Y25116905D02*
X16254523Y25366905D01*
X16159285Y25366905D01*
X16135476Y25355000D01*
X16123571Y25343096D01*
X16111666Y25319286D01*
X16111666Y25283572D01*
X16123571Y25259762D01*
X16135476Y25247858D01*
X16159285Y25235953D01*
X16254523Y25235953D01*
X15992619Y25116905D02*
X15945000Y25116905D01*
X15921190Y25128810D01*
X15909285Y25140715D01*
X15885476Y25176429D01*
X15873571Y25224048D01*
X15873571Y25319286D01*
X15885476Y25343096D01*
X15897380Y25355000D01*
X15921190Y25366905D01*
X15968809Y25366905D01*
X15992619Y25355000D01*
X16004523Y25343096D01*
X16016428Y25319286D01*
X16016428Y25259762D01*
X16004523Y25235953D01*
X15992619Y25224048D01*
X15968809Y25212143D01*
X15921190Y25212143D01*
X15897380Y25224048D01*
X15885476Y25235953D01*
X15873571Y25259762D01*
%TO.C,C26*%
X13709285Y24630715D02*
X13721190Y24642620D01*
X13733095Y24678334D01*
X13733095Y24702143D01*
X13721190Y24737858D01*
X13697380Y24761667D01*
X13673571Y24773572D01*
X13625952Y24785477D01*
X13590238Y24785477D01*
X13542619Y24773572D01*
X13518809Y24761667D01*
X13495000Y24737858D01*
X13483095Y24702143D01*
X13483095Y24678334D01*
X13495000Y24642620D01*
X13506904Y24630715D01*
X13506904Y24535477D02*
X13495000Y24523572D01*
X13483095Y24499762D01*
X13483095Y24440239D01*
X13495000Y24416429D01*
X13506904Y24404524D01*
X13530714Y24392620D01*
X13554523Y24392620D01*
X13590238Y24404524D01*
X13733095Y24547381D01*
X13733095Y24392620D01*
X13483095Y24178334D02*
X13483095Y24225953D01*
X13495000Y24249762D01*
X13506904Y24261667D01*
X13542619Y24285477D01*
X13590238Y24297381D01*
X13685476Y24297381D01*
X13709285Y24285477D01*
X13721190Y24273572D01*
X13733095Y24249762D01*
X13733095Y24202143D01*
X13721190Y24178334D01*
X13709285Y24166429D01*
X13685476Y24154524D01*
X13625952Y24154524D01*
X13602142Y24166429D01*
X13590238Y24178334D01*
X13578333Y24202143D01*
X13578333Y24249762D01*
X13590238Y24273572D01*
X13602142Y24285477D01*
X13625952Y24297381D01*
%TO.C,C29*%
X14409285Y17240715D02*
X14421190Y17252620D01*
X14433095Y17288334D01*
X14433095Y17312143D01*
X14421190Y17347858D01*
X14397380Y17371667D01*
X14373571Y17383572D01*
X14325952Y17395477D01*
X14290238Y17395477D01*
X14242619Y17383572D01*
X14218809Y17371667D01*
X14195000Y17347858D01*
X14183095Y17312143D01*
X14183095Y17288334D01*
X14195000Y17252620D01*
X14206904Y17240715D01*
X14206904Y17145477D02*
X14195000Y17133572D01*
X14183095Y17109762D01*
X14183095Y17050239D01*
X14195000Y17026429D01*
X14206904Y17014524D01*
X14230714Y17002620D01*
X14254523Y17002620D01*
X14290238Y17014524D01*
X14433095Y17157381D01*
X14433095Y17002620D01*
X14433095Y16883572D02*
X14433095Y16835953D01*
X14421190Y16812143D01*
X14409285Y16800239D01*
X14373571Y16776429D01*
X14325952Y16764524D01*
X14230714Y16764524D01*
X14206904Y16776429D01*
X14195000Y16788334D01*
X14183095Y16812143D01*
X14183095Y16859762D01*
X14195000Y16883572D01*
X14206904Y16895477D01*
X14230714Y16907381D01*
X14290238Y16907381D01*
X14314047Y16895477D01*
X14325952Y16883572D01*
X14337857Y16859762D01*
X14337857Y16812143D01*
X14325952Y16788334D01*
X14314047Y16776429D01*
X14290238Y16764524D01*
%TO.C,R19*%
X12840714Y18136905D02*
X12924047Y18255953D01*
X12983571Y18136905D02*
X12983571Y18386905D01*
X12888333Y18386905D01*
X12864523Y18375000D01*
X12852619Y18363096D01*
X12840714Y18339286D01*
X12840714Y18303572D01*
X12852619Y18279762D01*
X12864523Y18267858D01*
X12888333Y18255953D01*
X12983571Y18255953D01*
X12602619Y18136905D02*
X12745476Y18136905D01*
X12674047Y18136905D02*
X12674047Y18386905D01*
X12697857Y18351191D01*
X12721666Y18327381D01*
X12745476Y18315477D01*
X12483571Y18136905D02*
X12435952Y18136905D01*
X12412142Y18148810D01*
X12400238Y18160715D01*
X12376428Y18196429D01*
X12364523Y18244048D01*
X12364523Y18339286D01*
X12376428Y18363096D01*
X12388333Y18375000D01*
X12412142Y18386905D01*
X12459761Y18386905D01*
X12483571Y18375000D01*
X12495476Y18363096D01*
X12507380Y18339286D01*
X12507380Y18279762D01*
X12495476Y18255953D01*
X12483571Y18244048D01*
X12459761Y18232143D01*
X12412142Y18232143D01*
X12388333Y18244048D01*
X12376428Y18255953D01*
X12364523Y18279762D01*
%TO.C,R10*%
X16973095Y23860715D02*
X16854047Y23944048D01*
X16973095Y24003572D02*
X16723095Y24003572D01*
X16723095Y23908334D01*
X16735000Y23884524D01*
X16746904Y23872620D01*
X16770714Y23860715D01*
X16806428Y23860715D01*
X16830238Y23872620D01*
X16842142Y23884524D01*
X16854047Y23908334D01*
X16854047Y24003572D01*
X16973095Y23622620D02*
X16973095Y23765477D01*
X16973095Y23694048D02*
X16723095Y23694048D01*
X16758809Y23717858D01*
X16782619Y23741667D01*
X16794523Y23765477D01*
X16723095Y23467858D02*
X16723095Y23444048D01*
X16735000Y23420239D01*
X16746904Y23408334D01*
X16770714Y23396429D01*
X16818333Y23384524D01*
X16877857Y23384524D01*
X16925476Y23396429D01*
X16949285Y23408334D01*
X16961190Y23420239D01*
X16973095Y23444048D01*
X16973095Y23467858D01*
X16961190Y23491667D01*
X16949285Y23503572D01*
X16925476Y23515477D01*
X16877857Y23527381D01*
X16818333Y23527381D01*
X16770714Y23515477D01*
X16746904Y23503572D01*
X16735000Y23491667D01*
X16723095Y23467858D01*
%TO.C,C40*%
X16250714Y19910715D02*
X16262619Y19898810D01*
X16298333Y19886905D01*
X16322142Y19886905D01*
X16357857Y19898810D01*
X16381666Y19922620D01*
X16393571Y19946429D01*
X16405476Y19994048D01*
X16405476Y20029762D01*
X16393571Y20077381D01*
X16381666Y20101191D01*
X16357857Y20125000D01*
X16322142Y20136905D01*
X16298333Y20136905D01*
X16262619Y20125000D01*
X16250714Y20113096D01*
X16036428Y20053572D02*
X16036428Y19886905D01*
X16095952Y20148810D02*
X16155476Y19970239D01*
X16000714Y19970239D01*
X15857857Y20136905D02*
X15834047Y20136905D01*
X15810238Y20125000D01*
X15798333Y20113096D01*
X15786428Y20089286D01*
X15774523Y20041667D01*
X15774523Y19982143D01*
X15786428Y19934524D01*
X15798333Y19910715D01*
X15810238Y19898810D01*
X15834047Y19886905D01*
X15857857Y19886905D01*
X15881666Y19898810D01*
X15893571Y19910715D01*
X15905476Y19934524D01*
X15917380Y19982143D01*
X15917380Y20041667D01*
X15905476Y20089286D01*
X15893571Y20113096D01*
X15881666Y20125000D01*
X15857857Y20136905D01*
%TO.C,R18*%
X10933095Y16530716D02*
X10814047Y16614049D01*
X10933095Y16673573D02*
X10683095Y16673573D01*
X10683095Y16578335D01*
X10695000Y16554525D01*
X10706904Y16542621D01*
X10730714Y16530716D01*
X10766428Y16530716D01*
X10790238Y16542621D01*
X10802142Y16554525D01*
X10814047Y16578335D01*
X10814047Y16673573D01*
X10933095Y16292621D02*
X10933095Y16435478D01*
X10933095Y16364049D02*
X10683095Y16364049D01*
X10718809Y16387859D01*
X10742619Y16411668D01*
X10754523Y16435478D01*
X10790238Y16149763D02*
X10778333Y16173573D01*
X10766428Y16185478D01*
X10742619Y16197382D01*
X10730714Y16197382D01*
X10706904Y16185478D01*
X10695000Y16173573D01*
X10683095Y16149763D01*
X10683095Y16102144D01*
X10695000Y16078335D01*
X10706904Y16066430D01*
X10730714Y16054525D01*
X10742619Y16054525D01*
X10766428Y16066430D01*
X10778333Y16078335D01*
X10790238Y16102144D01*
X10790238Y16149763D01*
X10802142Y16173573D01*
X10814047Y16185478D01*
X10837857Y16197382D01*
X10885476Y16197382D01*
X10909285Y16185478D01*
X10921190Y16173573D01*
X10933095Y16149763D01*
X10933095Y16102144D01*
X10921190Y16078335D01*
X10909285Y16066430D01*
X10885476Y16054525D01*
X10837857Y16054525D01*
X10814047Y16066430D01*
X10802142Y16078335D01*
X10790238Y16102144D01*
%TO.C,C50*%
X15139285Y21640715D02*
X15151190Y21652620D01*
X15163095Y21688334D01*
X15163095Y21712143D01*
X15151190Y21747858D01*
X15127380Y21771667D01*
X15103571Y21783572D01*
X15055952Y21795477D01*
X15020238Y21795477D01*
X14972619Y21783572D01*
X14948809Y21771667D01*
X14925000Y21747858D01*
X14913095Y21712143D01*
X14913095Y21688334D01*
X14925000Y21652620D01*
X14936904Y21640715D01*
X14913095Y21414524D02*
X14913095Y21533572D01*
X15032142Y21545477D01*
X15020238Y21533572D01*
X15008333Y21509762D01*
X15008333Y21450239D01*
X15020238Y21426429D01*
X15032142Y21414524D01*
X15055952Y21402620D01*
X15115476Y21402620D01*
X15139285Y21414524D01*
X15151190Y21426429D01*
X15163095Y21450239D01*
X15163095Y21509762D01*
X15151190Y21533572D01*
X15139285Y21545477D01*
X14913095Y21247858D02*
X14913095Y21224048D01*
X14925000Y21200239D01*
X14936904Y21188334D01*
X14960714Y21176429D01*
X15008333Y21164524D01*
X15067857Y21164524D01*
X15115476Y21176429D01*
X15139285Y21188334D01*
X15151190Y21200239D01*
X15163095Y21224048D01*
X15163095Y21247858D01*
X15151190Y21271667D01*
X15139285Y21283572D01*
X15115476Y21295477D01*
X15067857Y21307381D01*
X15008333Y21307381D01*
X14960714Y21295477D01*
X14936904Y21283572D01*
X14925000Y21271667D01*
X14913095Y21247858D01*
%TO.C,R12*%
X15510714Y24266905D02*
X15594047Y24385953D01*
X15653571Y24266905D02*
X15653571Y24516905D01*
X15558333Y24516905D01*
X15534523Y24505000D01*
X15522619Y24493096D01*
X15510714Y24469286D01*
X15510714Y24433572D01*
X15522619Y24409762D01*
X15534523Y24397858D01*
X15558333Y24385953D01*
X15653571Y24385953D01*
X15272619Y24266905D02*
X15415476Y24266905D01*
X15344047Y24266905D02*
X15344047Y24516905D01*
X15367857Y24481191D01*
X15391666Y24457381D01*
X15415476Y24445477D01*
X15177380Y24493096D02*
X15165476Y24505000D01*
X15141666Y24516905D01*
X15082142Y24516905D01*
X15058333Y24505000D01*
X15046428Y24493096D01*
X15034523Y24469286D01*
X15034523Y24445477D01*
X15046428Y24409762D01*
X15189285Y24266905D01*
X15034523Y24266905D01*
%TO.C,C15*%
X10650714Y19190715D02*
X10662619Y19178810D01*
X10698333Y19166905D01*
X10722142Y19166905D01*
X10757857Y19178810D01*
X10781666Y19202620D01*
X10793571Y19226429D01*
X10805476Y19274048D01*
X10805476Y19309762D01*
X10793571Y19357381D01*
X10781666Y19381191D01*
X10757857Y19405000D01*
X10722142Y19416905D01*
X10698333Y19416905D01*
X10662619Y19405000D01*
X10650714Y19393096D01*
X10412619Y19166905D02*
X10555476Y19166905D01*
X10484047Y19166905D02*
X10484047Y19416905D01*
X10507857Y19381191D01*
X10531666Y19357381D01*
X10555476Y19345477D01*
X10186428Y19416905D02*
X10305476Y19416905D01*
X10317380Y19297858D01*
X10305476Y19309762D01*
X10281666Y19321667D01*
X10222142Y19321667D01*
X10198333Y19309762D01*
X10186428Y19297858D01*
X10174523Y19274048D01*
X10174523Y19214524D01*
X10186428Y19190715D01*
X10198333Y19178810D01*
X10222142Y19166905D01*
X10281666Y19166905D01*
X10305476Y19178810D01*
X10317380Y19190715D01*
%TO.C,C20*%
X18410714Y20340715D02*
X18422619Y20328810D01*
X18458333Y20316905D01*
X18482142Y20316905D01*
X18517857Y20328810D01*
X18541666Y20352620D01*
X18553571Y20376429D01*
X18565476Y20424048D01*
X18565476Y20459762D01*
X18553571Y20507381D01*
X18541666Y20531191D01*
X18517857Y20555000D01*
X18482142Y20566905D01*
X18458333Y20566905D01*
X18422619Y20555000D01*
X18410714Y20543096D01*
X18315476Y20543096D02*
X18303571Y20555000D01*
X18279761Y20566905D01*
X18220238Y20566905D01*
X18196428Y20555000D01*
X18184523Y20543096D01*
X18172619Y20519286D01*
X18172619Y20495477D01*
X18184523Y20459762D01*
X18327380Y20316905D01*
X18172619Y20316905D01*
X18017857Y20566905D02*
X17994047Y20566905D01*
X17970238Y20555000D01*
X17958333Y20543096D01*
X17946428Y20519286D01*
X17934523Y20471667D01*
X17934523Y20412143D01*
X17946428Y20364524D01*
X17958333Y20340715D01*
X17970238Y20328810D01*
X17994047Y20316905D01*
X18017857Y20316905D01*
X18041666Y20328810D01*
X18053571Y20340715D01*
X18065476Y20364524D01*
X18077380Y20412143D01*
X18077380Y20471667D01*
X18065476Y20519286D01*
X18053571Y20543096D01*
X18041666Y20555000D01*
X18017857Y20566905D01*
%TO.C,C46*%
X18420714Y21840715D02*
X18432619Y21828810D01*
X18468333Y21816905D01*
X18492142Y21816905D01*
X18527857Y21828810D01*
X18551666Y21852620D01*
X18563571Y21876429D01*
X18575476Y21924048D01*
X18575476Y21959762D01*
X18563571Y22007381D01*
X18551666Y22031191D01*
X18527857Y22055000D01*
X18492142Y22066905D01*
X18468333Y22066905D01*
X18432619Y22055000D01*
X18420714Y22043096D01*
X18206428Y21983572D02*
X18206428Y21816905D01*
X18265952Y22078810D02*
X18325476Y21900239D01*
X18170714Y21900239D01*
X17968333Y22066905D02*
X18015952Y22066905D01*
X18039761Y22055000D01*
X18051666Y22043096D01*
X18075476Y22007381D01*
X18087380Y21959762D01*
X18087380Y21864524D01*
X18075476Y21840715D01*
X18063571Y21828810D01*
X18039761Y21816905D01*
X17992142Y21816905D01*
X17968333Y21828810D01*
X17956428Y21840715D01*
X17944523Y21864524D01*
X17944523Y21924048D01*
X17956428Y21947858D01*
X17968333Y21959762D01*
X17992142Y21971667D01*
X18039761Y21971667D01*
X18063571Y21959762D01*
X18075476Y21947858D01*
X18087380Y21924048D01*
%TO.C,R2*%
X14433095Y25931667D02*
X14314047Y26015000D01*
X14433095Y26074524D02*
X14183095Y26074524D01*
X14183095Y25979286D01*
X14195000Y25955477D01*
X14206904Y25943572D01*
X14230714Y25931667D01*
X14266428Y25931667D01*
X14290238Y25943572D01*
X14302142Y25955477D01*
X14314047Y25979286D01*
X14314047Y26074524D01*
X14206904Y25836429D02*
X14195000Y25824524D01*
X14183095Y25800715D01*
X14183095Y25741191D01*
X14195000Y25717381D01*
X14206904Y25705477D01*
X14230714Y25693572D01*
X14254523Y25693572D01*
X14290238Y25705477D01*
X14433095Y25848334D01*
X14433095Y25693572D01*
%TO.C,C6*%
X17541666Y24300715D02*
X17553571Y24288810D01*
X17589285Y24276905D01*
X17613095Y24276905D01*
X17648809Y24288810D01*
X17672619Y24312620D01*
X17684523Y24336429D01*
X17696428Y24384048D01*
X17696428Y24419762D01*
X17684523Y24467381D01*
X17672619Y24491191D01*
X17648809Y24515000D01*
X17613095Y24526905D01*
X17589285Y24526905D01*
X17553571Y24515000D01*
X17541666Y24503096D01*
X17327380Y24526905D02*
X17375000Y24526905D01*
X17398809Y24515000D01*
X17410714Y24503096D01*
X17434523Y24467381D01*
X17446428Y24419762D01*
X17446428Y24324524D01*
X17434523Y24300715D01*
X17422619Y24288810D01*
X17398809Y24276905D01*
X17351190Y24276905D01*
X17327380Y24288810D01*
X17315476Y24300715D01*
X17303571Y24324524D01*
X17303571Y24384048D01*
X17315476Y24407858D01*
X17327380Y24419762D01*
X17351190Y24431667D01*
X17398809Y24431667D01*
X17422619Y24419762D01*
X17434523Y24407858D01*
X17446428Y24384048D01*
%TO.C,C43*%
X13039285Y21650715D02*
X13051190Y21662620D01*
X13063095Y21698334D01*
X13063095Y21722143D01*
X13051190Y21757858D01*
X13027380Y21781667D01*
X13003571Y21793572D01*
X12955952Y21805477D01*
X12920238Y21805477D01*
X12872619Y21793572D01*
X12848809Y21781667D01*
X12825000Y21757858D01*
X12813095Y21722143D01*
X12813095Y21698334D01*
X12825000Y21662620D01*
X12836904Y21650715D01*
X12896428Y21436429D02*
X13063095Y21436429D01*
X12801190Y21495953D02*
X12979761Y21555477D01*
X12979761Y21400715D01*
X12813095Y21329286D02*
X12813095Y21174524D01*
X12908333Y21257858D01*
X12908333Y21222143D01*
X12920238Y21198334D01*
X12932142Y21186429D01*
X12955952Y21174524D01*
X13015476Y21174524D01*
X13039285Y21186429D01*
X13051190Y21198334D01*
X13063095Y21222143D01*
X13063095Y21293572D01*
X13051190Y21317381D01*
X13039285Y21329286D01*
%TO.C,U10*%
X11693095Y21109524D02*
X11895476Y21109524D01*
X11919285Y21097620D01*
X11931190Y21085715D01*
X11943095Y21061905D01*
X11943095Y21014286D01*
X11931190Y20990477D01*
X11919285Y20978572D01*
X11895476Y20966667D01*
X11693095Y20966667D01*
X11943095Y20716667D02*
X11943095Y20859524D01*
X11943095Y20788096D02*
X11693095Y20788096D01*
X11728809Y20811905D01*
X11752619Y20835715D01*
X11764523Y20859524D01*
X11693095Y20561905D02*
X11693095Y20538096D01*
X11705000Y20514286D01*
X11716904Y20502381D01*
X11740714Y20490477D01*
X11788333Y20478572D01*
X11847857Y20478572D01*
X11895476Y20490477D01*
X11919285Y20502381D01*
X11931190Y20514286D01*
X11943095Y20538096D01*
X11943095Y20561905D01*
X11931190Y20585715D01*
X11919285Y20597620D01*
X11895476Y20609524D01*
X11847857Y20621429D01*
X11788333Y20621429D01*
X11740714Y20609524D01*
X11716904Y20597620D01*
X11705000Y20585715D01*
X11693095Y20561905D01*
%TO.C,R11*%
X15550714Y23556905D02*
X15634047Y23675953D01*
X15693571Y23556905D02*
X15693571Y23806905D01*
X15598333Y23806905D01*
X15574523Y23795000D01*
X15562619Y23783096D01*
X15550714Y23759286D01*
X15550714Y23723572D01*
X15562619Y23699762D01*
X15574523Y23687858D01*
X15598333Y23675953D01*
X15693571Y23675953D01*
X15312619Y23556905D02*
X15455476Y23556905D01*
X15384047Y23556905D02*
X15384047Y23806905D01*
X15407857Y23771191D01*
X15431666Y23747381D01*
X15455476Y23735477D01*
X15074523Y23556905D02*
X15217380Y23556905D01*
X15145952Y23556905D02*
X15145952Y23806905D01*
X15169761Y23771191D01*
X15193571Y23747381D01*
X15217380Y23735477D01*
%TO.C,C3*%
X9829285Y25691667D02*
X9841190Y25703572D01*
X9853095Y25739286D01*
X9853095Y25763096D01*
X9841190Y25798810D01*
X9817380Y25822620D01*
X9793571Y25834524D01*
X9745952Y25846429D01*
X9710238Y25846429D01*
X9662619Y25834524D01*
X9638809Y25822620D01*
X9615000Y25798810D01*
X9603095Y25763096D01*
X9603095Y25739286D01*
X9615000Y25703572D01*
X9626904Y25691667D01*
X9603095Y25608334D02*
X9603095Y25453572D01*
X9698333Y25536905D01*
X9698333Y25501191D01*
X9710238Y25477381D01*
X9722142Y25465477D01*
X9745952Y25453572D01*
X9805476Y25453572D01*
X9829285Y25465477D01*
X9841190Y25477381D01*
X9853095Y25501191D01*
X9853095Y25572620D01*
X9841190Y25596429D01*
X9829285Y25608334D01*
%TO.C,C28*%
X11350714Y22540715D02*
X11362619Y22528810D01*
X11398333Y22516905D01*
X11422142Y22516905D01*
X11457857Y22528810D01*
X11481666Y22552620D01*
X11493571Y22576429D01*
X11505476Y22624048D01*
X11505476Y22659762D01*
X11493571Y22707381D01*
X11481666Y22731191D01*
X11457857Y22755000D01*
X11422142Y22766905D01*
X11398333Y22766905D01*
X11362619Y22755000D01*
X11350714Y22743096D01*
X11255476Y22743096D02*
X11243571Y22755000D01*
X11219761Y22766905D01*
X11160238Y22766905D01*
X11136428Y22755000D01*
X11124523Y22743096D01*
X11112619Y22719286D01*
X11112619Y22695477D01*
X11124523Y22659762D01*
X11267380Y22516905D01*
X11112619Y22516905D01*
X10969761Y22659762D02*
X10993571Y22671667D01*
X11005476Y22683572D01*
X11017380Y22707381D01*
X11017380Y22719286D01*
X11005476Y22743096D01*
X10993571Y22755000D01*
X10969761Y22766905D01*
X10922142Y22766905D01*
X10898333Y22755000D01*
X10886428Y22743096D01*
X10874523Y22719286D01*
X10874523Y22707381D01*
X10886428Y22683572D01*
X10898333Y22671667D01*
X10922142Y22659762D01*
X10969761Y22659762D01*
X10993571Y22647858D01*
X11005476Y22635953D01*
X11017380Y22612143D01*
X11017380Y22564524D01*
X11005476Y22540715D01*
X10993571Y22528810D01*
X10969761Y22516905D01*
X10922142Y22516905D01*
X10898333Y22528810D01*
X10886428Y22540715D01*
X10874523Y22564524D01*
X10874523Y22612143D01*
X10886428Y22635953D01*
X10898333Y22647858D01*
X10922142Y22659762D01*
%TO.C,C47*%
X13729285Y20260715D02*
X13741190Y20272620D01*
X13753095Y20308334D01*
X13753095Y20332143D01*
X13741190Y20367858D01*
X13717380Y20391667D01*
X13693571Y20403572D01*
X13645952Y20415477D01*
X13610238Y20415477D01*
X13562619Y20403572D01*
X13538809Y20391667D01*
X13515000Y20367858D01*
X13503095Y20332143D01*
X13503095Y20308334D01*
X13515000Y20272620D01*
X13526904Y20260715D01*
X13586428Y20046429D02*
X13753095Y20046429D01*
X13491190Y20105953D02*
X13669761Y20165477D01*
X13669761Y20010715D01*
X13503095Y19939286D02*
X13503095Y19772620D01*
X13753095Y19879762D01*
%TO.C,R4*%
X19133095Y24411667D02*
X19014047Y24495000D01*
X19133095Y24554524D02*
X18883095Y24554524D01*
X18883095Y24459286D01*
X18895000Y24435477D01*
X18906904Y24423572D01*
X18930714Y24411667D01*
X18966428Y24411667D01*
X18990238Y24423572D01*
X19002142Y24435477D01*
X19014047Y24459286D01*
X19014047Y24554524D01*
X18966428Y24197381D02*
X19133095Y24197381D01*
X18871190Y24256905D02*
X19049761Y24316429D01*
X19049761Y24161667D01*
%TO.C,C14*%
X10600714Y19910715D02*
X10612619Y19898810D01*
X10648333Y19886905D01*
X10672142Y19886905D01*
X10707857Y19898810D01*
X10731666Y19922620D01*
X10743571Y19946429D01*
X10755476Y19994048D01*
X10755476Y20029762D01*
X10743571Y20077381D01*
X10731666Y20101191D01*
X10707857Y20125000D01*
X10672142Y20136905D01*
X10648333Y20136905D01*
X10612619Y20125000D01*
X10600714Y20113096D01*
X10362619Y19886905D02*
X10505476Y19886905D01*
X10434047Y19886905D02*
X10434047Y20136905D01*
X10457857Y20101191D01*
X10481666Y20077381D01*
X10505476Y20065477D01*
X10148333Y20053572D02*
X10148333Y19886905D01*
X10207857Y20148810D02*
X10267380Y19970239D01*
X10112619Y19970239D01*
%TO.C,C22*%
X18410714Y21060715D02*
X18422619Y21048810D01*
X18458333Y21036905D01*
X18482142Y21036905D01*
X18517857Y21048810D01*
X18541666Y21072620D01*
X18553571Y21096429D01*
X18565476Y21144048D01*
X18565476Y21179762D01*
X18553571Y21227381D01*
X18541666Y21251191D01*
X18517857Y21275000D01*
X18482142Y21286905D01*
X18458333Y21286905D01*
X18422619Y21275000D01*
X18410714Y21263096D01*
X18315476Y21263096D02*
X18303571Y21275000D01*
X18279761Y21286905D01*
X18220238Y21286905D01*
X18196428Y21275000D01*
X18184523Y21263096D01*
X18172619Y21239286D01*
X18172619Y21215477D01*
X18184523Y21179762D01*
X18327380Y21036905D01*
X18172619Y21036905D01*
X18077380Y21263096D02*
X18065476Y21275000D01*
X18041666Y21286905D01*
X17982142Y21286905D01*
X17958333Y21275000D01*
X17946428Y21263096D01*
X17934523Y21239286D01*
X17934523Y21215477D01*
X17946428Y21179762D01*
X18089285Y21036905D01*
X17934523Y21036905D01*
%TO.C,R3*%
X15133095Y25951667D02*
X15014047Y26035000D01*
X15133095Y26094524D02*
X14883095Y26094524D01*
X14883095Y25999286D01*
X14895000Y25975477D01*
X14906904Y25963572D01*
X14930714Y25951667D01*
X14966428Y25951667D01*
X14990238Y25963572D01*
X15002142Y25975477D01*
X15014047Y25999286D01*
X15014047Y26094524D01*
X14883095Y25868334D02*
X14883095Y25713572D01*
X14978333Y25796905D01*
X14978333Y25761191D01*
X14990238Y25737381D01*
X15002142Y25725477D01*
X15025952Y25713572D01*
X15085476Y25713572D01*
X15109285Y25725477D01*
X15121190Y25737381D01*
X15133095Y25761191D01*
X15133095Y25832620D01*
X15121190Y25856429D01*
X15109285Y25868334D01*
%TO.C,C45*%
X13729285Y21650715D02*
X13741190Y21662620D01*
X13753095Y21698334D01*
X13753095Y21722143D01*
X13741190Y21757858D01*
X13717380Y21781667D01*
X13693571Y21793572D01*
X13645952Y21805477D01*
X13610238Y21805477D01*
X13562619Y21793572D01*
X13538809Y21781667D01*
X13515000Y21757858D01*
X13503095Y21722143D01*
X13503095Y21698334D01*
X13515000Y21662620D01*
X13526904Y21650715D01*
X13586428Y21436429D02*
X13753095Y21436429D01*
X13491190Y21495953D02*
X13669761Y21555477D01*
X13669761Y21400715D01*
X13503095Y21186429D02*
X13503095Y21305477D01*
X13622142Y21317381D01*
X13610238Y21305477D01*
X13598333Y21281667D01*
X13598333Y21222143D01*
X13610238Y21198334D01*
X13622142Y21186429D01*
X13645952Y21174524D01*
X13705476Y21174524D01*
X13729285Y21186429D01*
X13741190Y21198334D01*
X13753095Y21222143D01*
X13753095Y21281667D01*
X13741190Y21305477D01*
X13729285Y21317381D01*
%TO.C,C42*%
X18410714Y18830715D02*
X18422619Y18818810D01*
X18458333Y18806905D01*
X18482142Y18806905D01*
X18517857Y18818810D01*
X18541666Y18842620D01*
X18553571Y18866429D01*
X18565476Y18914048D01*
X18565476Y18949762D01*
X18553571Y18997381D01*
X18541666Y19021191D01*
X18517857Y19045000D01*
X18482142Y19056905D01*
X18458333Y19056905D01*
X18422619Y19045000D01*
X18410714Y19033096D01*
X18196428Y18973572D02*
X18196428Y18806905D01*
X18255952Y19068810D02*
X18315476Y18890239D01*
X18160714Y18890239D01*
X18077380Y19033096D02*
X18065476Y19045000D01*
X18041666Y19056905D01*
X17982142Y19056905D01*
X17958333Y19045000D01*
X17946428Y19033096D01*
X17934523Y19009286D01*
X17934523Y18985477D01*
X17946428Y18949762D01*
X18089285Y18806905D01*
X17934523Y18806905D01*
%TO.C,C23*%
X9920714Y20340715D02*
X9932619Y20328810D01*
X9968333Y20316905D01*
X9992142Y20316905D01*
X10027857Y20328810D01*
X10051666Y20352620D01*
X10063571Y20376429D01*
X10075476Y20424048D01*
X10075476Y20459762D01*
X10063571Y20507381D01*
X10051666Y20531191D01*
X10027857Y20555000D01*
X9992142Y20566905D01*
X9968333Y20566905D01*
X9932619Y20555000D01*
X9920714Y20543096D01*
X9825476Y20543096D02*
X9813571Y20555000D01*
X9789761Y20566905D01*
X9730238Y20566905D01*
X9706428Y20555000D01*
X9694523Y20543096D01*
X9682619Y20519286D01*
X9682619Y20495477D01*
X9694523Y20459762D01*
X9837380Y20316905D01*
X9682619Y20316905D01*
X9599285Y20566905D02*
X9444523Y20566905D01*
X9527857Y20471667D01*
X9492142Y20471667D01*
X9468333Y20459762D01*
X9456428Y20447858D01*
X9444523Y20424048D01*
X9444523Y20364524D01*
X9456428Y20340715D01*
X9468333Y20328810D01*
X9492142Y20316905D01*
X9563571Y20316905D01*
X9587380Y20328810D01*
X9599285Y20340715D01*
%TO.C,C51*%
X15109285Y20250715D02*
X15121190Y20262620D01*
X15133095Y20298334D01*
X15133095Y20322143D01*
X15121190Y20357858D01*
X15097380Y20381667D01*
X15073571Y20393572D01*
X15025952Y20405477D01*
X14990238Y20405477D01*
X14942619Y20393572D01*
X14918809Y20381667D01*
X14895000Y20357858D01*
X14883095Y20322143D01*
X14883095Y20298334D01*
X14895000Y20262620D01*
X14906904Y20250715D01*
X14883095Y20024524D02*
X14883095Y20143572D01*
X15002142Y20155477D01*
X14990238Y20143572D01*
X14978333Y20119762D01*
X14978333Y20060239D01*
X14990238Y20036429D01*
X15002142Y20024524D01*
X15025952Y20012620D01*
X15085476Y20012620D01*
X15109285Y20024524D01*
X15121190Y20036429D01*
X15133095Y20060239D01*
X15133095Y20119762D01*
X15121190Y20143572D01*
X15109285Y20155477D01*
X15133095Y19774524D02*
X15133095Y19917381D01*
X15133095Y19845953D02*
X14883095Y19845953D01*
X14918809Y19869762D01*
X14942619Y19893572D01*
X14954523Y19917381D01*
%TO.C,C4*%
X9129285Y25701667D02*
X9141190Y25713572D01*
X9153095Y25749286D01*
X9153095Y25773096D01*
X9141190Y25808810D01*
X9117380Y25832620D01*
X9093571Y25844524D01*
X9045952Y25856429D01*
X9010238Y25856429D01*
X8962619Y25844524D01*
X8938809Y25832620D01*
X8915000Y25808810D01*
X8903095Y25773096D01*
X8903095Y25749286D01*
X8915000Y25713572D01*
X8926904Y25701667D01*
X8986428Y25487381D02*
X9153095Y25487381D01*
X8891190Y25546905D02*
X9069761Y25606429D01*
X9069761Y25451667D01*
%TO.C,C48*%
X17650714Y22880715D02*
X17662619Y22868810D01*
X17698333Y22856905D01*
X17722142Y22856905D01*
X17757857Y22868810D01*
X17781666Y22892620D01*
X17793571Y22916429D01*
X17805476Y22964048D01*
X17805476Y22999762D01*
X17793571Y23047381D01*
X17781666Y23071191D01*
X17757857Y23095000D01*
X17722142Y23106905D01*
X17698333Y23106905D01*
X17662619Y23095000D01*
X17650714Y23083096D01*
X17436428Y23023572D02*
X17436428Y22856905D01*
X17495952Y23118810D02*
X17555476Y22940239D01*
X17400714Y22940239D01*
X17269761Y22999762D02*
X17293571Y23011667D01*
X17305476Y23023572D01*
X17317380Y23047381D01*
X17317380Y23059286D01*
X17305476Y23083096D01*
X17293571Y23095000D01*
X17269761Y23106905D01*
X17222142Y23106905D01*
X17198333Y23095000D01*
X17186428Y23083096D01*
X17174523Y23059286D01*
X17174523Y23047381D01*
X17186428Y23023572D01*
X17198333Y23011667D01*
X17222142Y22999762D01*
X17269761Y22999762D01*
X17293571Y22987858D01*
X17305476Y22975953D01*
X17317380Y22952143D01*
X17317380Y22904524D01*
X17305476Y22880715D01*
X17293571Y22868810D01*
X17269761Y22856905D01*
X17222142Y22856905D01*
X17198333Y22868810D01*
X17186428Y22880715D01*
X17174523Y22904524D01*
X17174523Y22952143D01*
X17186428Y22975953D01*
X17198333Y22987858D01*
X17222142Y22999762D01*
%TO.C,R20*%
X10283095Y16540715D02*
X10164047Y16624048D01*
X10283095Y16683572D02*
X10033095Y16683572D01*
X10033095Y16588334D01*
X10045000Y16564524D01*
X10056904Y16552620D01*
X10080714Y16540715D01*
X10116428Y16540715D01*
X10140238Y16552620D01*
X10152142Y16564524D01*
X10164047Y16588334D01*
X10164047Y16683572D01*
X10056904Y16445477D02*
X10045000Y16433572D01*
X10033095Y16409762D01*
X10033095Y16350239D01*
X10045000Y16326429D01*
X10056904Y16314524D01*
X10080714Y16302620D01*
X10104523Y16302620D01*
X10140238Y16314524D01*
X10283095Y16457381D01*
X10283095Y16302620D01*
X10033095Y16147858D02*
X10033095Y16124048D01*
X10045000Y16100239D01*
X10056904Y16088334D01*
X10080714Y16076429D01*
X10128333Y16064524D01*
X10187857Y16064524D01*
X10235476Y16076429D01*
X10259285Y16088334D01*
X10271190Y16100239D01*
X10283095Y16124048D01*
X10283095Y16147858D01*
X10271190Y16171667D01*
X10259285Y16183572D01*
X10235476Y16195477D01*
X10187857Y16207381D01*
X10128333Y16207381D01*
X10080714Y16195477D01*
X10056904Y16183572D01*
X10045000Y16171667D01*
X10033095Y16147858D01*
%TO.C,C31*%
X13719285Y17270715D02*
X13731190Y17282620D01*
X13743095Y17318334D01*
X13743095Y17342143D01*
X13731190Y17377858D01*
X13707380Y17401667D01*
X13683571Y17413572D01*
X13635952Y17425477D01*
X13600238Y17425477D01*
X13552619Y17413572D01*
X13528809Y17401667D01*
X13505000Y17377858D01*
X13493095Y17342143D01*
X13493095Y17318334D01*
X13505000Y17282620D01*
X13516904Y17270715D01*
X13493095Y17187381D02*
X13493095Y17032620D01*
X13588333Y17115953D01*
X13588333Y17080239D01*
X13600238Y17056429D01*
X13612142Y17044524D01*
X13635952Y17032620D01*
X13695476Y17032620D01*
X13719285Y17044524D01*
X13731190Y17056429D01*
X13743095Y17080239D01*
X13743095Y17151667D01*
X13731190Y17175477D01*
X13719285Y17187381D01*
X13743095Y16794524D02*
X13743095Y16937381D01*
X13743095Y16865953D02*
X13493095Y16865953D01*
X13528809Y16889762D01*
X13552619Y16913572D01*
X13564523Y16937381D01*
%TO.C,C21*%
X9930714Y21040715D02*
X9942619Y21028810D01*
X9978333Y21016905D01*
X10002142Y21016905D01*
X10037857Y21028810D01*
X10061666Y21052620D01*
X10073571Y21076429D01*
X10085476Y21124048D01*
X10085476Y21159762D01*
X10073571Y21207381D01*
X10061666Y21231191D01*
X10037857Y21255000D01*
X10002142Y21266905D01*
X9978333Y21266905D01*
X9942619Y21255000D01*
X9930714Y21243096D01*
X9835476Y21243096D02*
X9823571Y21255000D01*
X9799761Y21266905D01*
X9740238Y21266905D01*
X9716428Y21255000D01*
X9704523Y21243096D01*
X9692619Y21219286D01*
X9692619Y21195477D01*
X9704523Y21159762D01*
X9847380Y21016905D01*
X9692619Y21016905D01*
X9454523Y21016905D02*
X9597380Y21016905D01*
X9525952Y21016905D02*
X9525952Y21266905D01*
X9549761Y21231191D01*
X9573571Y21207381D01*
X9597380Y21195477D01*
%TO.C,C27*%
X16250714Y19190715D02*
X16262619Y19178810D01*
X16298333Y19166905D01*
X16322142Y19166905D01*
X16357857Y19178810D01*
X16381666Y19202620D01*
X16393571Y19226429D01*
X16405476Y19274048D01*
X16405476Y19309762D01*
X16393571Y19357381D01*
X16381666Y19381191D01*
X16357857Y19405000D01*
X16322142Y19416905D01*
X16298333Y19416905D01*
X16262619Y19405000D01*
X16250714Y19393096D01*
X16155476Y19393096D02*
X16143571Y19405000D01*
X16119761Y19416905D01*
X16060238Y19416905D01*
X16036428Y19405000D01*
X16024523Y19393096D01*
X16012619Y19369286D01*
X16012619Y19345477D01*
X16024523Y19309762D01*
X16167380Y19166905D01*
X16012619Y19166905D01*
X15929285Y19416905D02*
X15762619Y19416905D01*
X15869761Y19166905D01*
%TO.C,C10*%
X8119285Y40880715D02*
X8131190Y40892620D01*
X8143095Y40928334D01*
X8143095Y40952143D01*
X8131190Y40987858D01*
X8107380Y41011667D01*
X8083571Y41023572D01*
X8035952Y41035477D01*
X8000238Y41035477D01*
X7952619Y41023572D01*
X7928809Y41011667D01*
X7905000Y40987858D01*
X7893095Y40952143D01*
X7893095Y40928334D01*
X7905000Y40892620D01*
X7916904Y40880715D01*
X8143095Y40642620D02*
X8143095Y40785477D01*
X8143095Y40714048D02*
X7893095Y40714048D01*
X7928809Y40737858D01*
X7952619Y40761667D01*
X7964523Y40785477D01*
X7893095Y40487858D02*
X7893095Y40464048D01*
X7905000Y40440239D01*
X7916904Y40428334D01*
X7940714Y40416429D01*
X7988333Y40404524D01*
X8047857Y40404524D01*
X8095476Y40416429D01*
X8119285Y40428334D01*
X8131190Y40440239D01*
X8143095Y40464048D01*
X8143095Y40487858D01*
X8131190Y40511667D01*
X8119285Y40523572D01*
X8095476Y40535477D01*
X8047857Y40547381D01*
X7988333Y40547381D01*
X7940714Y40535477D01*
X7916904Y40523572D01*
X7905000Y40511667D01*
X7893095Y40487858D01*
%TO.C,C60*%
X13490714Y39390715D02*
X13502619Y39378810D01*
X13538333Y39366905D01*
X13562142Y39366905D01*
X13597857Y39378810D01*
X13621666Y39402620D01*
X13633571Y39426429D01*
X13645476Y39474048D01*
X13645476Y39509762D01*
X13633571Y39557381D01*
X13621666Y39581191D01*
X13597857Y39605000D01*
X13562142Y39616905D01*
X13538333Y39616905D01*
X13502619Y39605000D01*
X13490714Y39593096D01*
X13276428Y39616905D02*
X13324047Y39616905D01*
X13347857Y39605000D01*
X13359761Y39593096D01*
X13383571Y39557381D01*
X13395476Y39509762D01*
X13395476Y39414524D01*
X13383571Y39390715D01*
X13371666Y39378810D01*
X13347857Y39366905D01*
X13300238Y39366905D01*
X13276428Y39378810D01*
X13264523Y39390715D01*
X13252619Y39414524D01*
X13252619Y39474048D01*
X13264523Y39497858D01*
X13276428Y39509762D01*
X13300238Y39521667D01*
X13347857Y39521667D01*
X13371666Y39509762D01*
X13383571Y39497858D01*
X13395476Y39474048D01*
X13097857Y39616905D02*
X13074047Y39616905D01*
X13050238Y39605000D01*
X13038333Y39593096D01*
X13026428Y39569286D01*
X13014523Y39521667D01*
X13014523Y39462143D01*
X13026428Y39414524D01*
X13038333Y39390715D01*
X13050238Y39378810D01*
X13074047Y39366905D01*
X13097857Y39366905D01*
X13121666Y39378810D01*
X13133571Y39390715D01*
X13145476Y39414524D01*
X13157380Y39462143D01*
X13157380Y39521667D01*
X13145476Y39569286D01*
X13133571Y39593096D01*
X13121666Y39605000D01*
X13097857Y39616905D01*
%TO.C,C9*%
X14531666Y38680715D02*
X14543571Y38668810D01*
X14579285Y38656905D01*
X14603095Y38656905D01*
X14638809Y38668810D01*
X14662619Y38692620D01*
X14674523Y38716429D01*
X14686428Y38764048D01*
X14686428Y38799762D01*
X14674523Y38847381D01*
X14662619Y38871191D01*
X14638809Y38895000D01*
X14603095Y38906905D01*
X14579285Y38906905D01*
X14543571Y38895000D01*
X14531666Y38883096D01*
X14412619Y38656905D02*
X14365000Y38656905D01*
X14341190Y38668810D01*
X14329285Y38680715D01*
X14305476Y38716429D01*
X14293571Y38764048D01*
X14293571Y38859286D01*
X14305476Y38883096D01*
X14317380Y38895000D01*
X14341190Y38906905D01*
X14388809Y38906905D01*
X14412619Y38895000D01*
X14424523Y38883096D01*
X14436428Y38859286D01*
X14436428Y38799762D01*
X14424523Y38775953D01*
X14412619Y38764048D01*
X14388809Y38752143D01*
X14341190Y38752143D01*
X14317380Y38764048D01*
X14305476Y38775953D01*
X14293571Y38799762D01*
%TO.C,C7*%
X14511666Y38010715D02*
X14523571Y37998810D01*
X14559285Y37986905D01*
X14583095Y37986905D01*
X14618809Y37998810D01*
X14642619Y38022620D01*
X14654523Y38046429D01*
X14666428Y38094048D01*
X14666428Y38129762D01*
X14654523Y38177381D01*
X14642619Y38201191D01*
X14618809Y38225000D01*
X14583095Y38236905D01*
X14559285Y38236905D01*
X14523571Y38225000D01*
X14511666Y38213096D01*
X14428333Y38236905D02*
X14261666Y38236905D01*
X14368809Y37986905D01*
%TO.C,C67*%
X18839285Y35210715D02*
X18851190Y35222620D01*
X18863095Y35258334D01*
X18863095Y35282143D01*
X18851190Y35317858D01*
X18827380Y35341667D01*
X18803571Y35353572D01*
X18755952Y35365477D01*
X18720238Y35365477D01*
X18672619Y35353572D01*
X18648809Y35341667D01*
X18625000Y35317858D01*
X18613095Y35282143D01*
X18613095Y35258334D01*
X18625000Y35222620D01*
X18636904Y35210715D01*
X18613095Y34996429D02*
X18613095Y35044048D01*
X18625000Y35067858D01*
X18636904Y35079762D01*
X18672619Y35103572D01*
X18720238Y35115477D01*
X18815476Y35115477D01*
X18839285Y35103572D01*
X18851190Y35091667D01*
X18863095Y35067858D01*
X18863095Y35020239D01*
X18851190Y34996429D01*
X18839285Y34984524D01*
X18815476Y34972620D01*
X18755952Y34972620D01*
X18732142Y34984524D01*
X18720238Y34996429D01*
X18708333Y35020239D01*
X18708333Y35067858D01*
X18720238Y35091667D01*
X18732142Y35103572D01*
X18755952Y35115477D01*
X18613095Y34889286D02*
X18613095Y34722620D01*
X18863095Y34829762D01*
%TO.C,R14*%
X10613095Y35410715D02*
X10494047Y35494048D01*
X10613095Y35553572D02*
X10363095Y35553572D01*
X10363095Y35458334D01*
X10375000Y35434524D01*
X10386904Y35422620D01*
X10410714Y35410715D01*
X10446428Y35410715D01*
X10470238Y35422620D01*
X10482142Y35434524D01*
X10494047Y35458334D01*
X10494047Y35553572D01*
X10613095Y35172620D02*
X10613095Y35315477D01*
X10613095Y35244048D02*
X10363095Y35244048D01*
X10398809Y35267858D01*
X10422619Y35291667D01*
X10434523Y35315477D01*
X10446428Y34958334D02*
X10613095Y34958334D01*
X10351190Y35017858D02*
X10529761Y35077381D01*
X10529761Y34922620D01*
D16*
%TO.C,Q1*%
X11819523Y41519048D02*
X11810000Y41538096D01*
X11790952Y41557143D01*
X11762380Y41585715D01*
X11752857Y41604762D01*
X11752857Y41623810D01*
X11800476Y41614286D02*
X11790952Y41633334D01*
X11771904Y41652381D01*
X11733809Y41661905D01*
X11667142Y41661905D01*
X11629047Y41652381D01*
X11610000Y41633334D01*
X11600476Y41614286D01*
X11600476Y41576191D01*
X11610000Y41557143D01*
X11629047Y41538096D01*
X11667142Y41528572D01*
X11733809Y41528572D01*
X11771904Y41538096D01*
X11790952Y41557143D01*
X11800476Y41576191D01*
X11800476Y41614286D01*
X11800476Y41338096D02*
X11800476Y41452381D01*
X11800476Y41395239D02*
X11600476Y41395239D01*
X11629047Y41414286D01*
X11648095Y41433334D01*
X11657619Y41452381D01*
D12*
%TO.C,D3*%
X14412857Y44048572D02*
X14412857Y44648572D01*
X14270000Y44648572D01*
X14184285Y44620000D01*
X14127142Y44562858D01*
X14098571Y44505715D01*
X14070000Y44391429D01*
X14070000Y44305715D01*
X14098571Y44191429D01*
X14127142Y44134286D01*
X14184285Y44077143D01*
X14270000Y44048572D01*
X14412857Y44048572D01*
X13870000Y44648572D02*
X13498571Y44648572D01*
X13698571Y44420000D01*
X13612857Y44420000D01*
X13555714Y44391429D01*
X13527142Y44362858D01*
X13498571Y44305715D01*
X13498571Y44162858D01*
X13527142Y44105715D01*
X13555714Y44077143D01*
X13612857Y44048572D01*
X13784285Y44048572D01*
X13841428Y44077143D01*
X13870000Y44105715D01*
D14*
%TO.C,U2*%
X15338571Y46734286D02*
X15338571Y46491429D01*
X15324285Y46462858D01*
X15310000Y46448572D01*
X15281428Y46434286D01*
X15224285Y46434286D01*
X15195714Y46448572D01*
X15181428Y46462858D01*
X15167142Y46491429D01*
X15167142Y46734286D01*
X15038571Y46705715D02*
X15024285Y46720000D01*
X14995714Y46734286D01*
X14924285Y46734286D01*
X14895714Y46720000D01*
X14881428Y46705715D01*
X14867142Y46677143D01*
X14867142Y46648572D01*
X14881428Y46605715D01*
X15052857Y46434286D01*
X14867142Y46434286D01*
D12*
%TO.C,J2*%
X5080000Y50800000D02*
X5080000Y0D01*
X6985000Y50800000D02*
X5080000Y50800000D01*
X5080000Y0D02*
X7620000Y0D01*
X7620000Y50165000D02*
X6985000Y50800000D01*
X7620000Y0D02*
X7620000Y50165000D01*
%TO.C,J6*%
X22225000Y50800000D02*
X20320000Y50800000D01*
X20320000Y0D02*
X22860000Y0D01*
X22860000Y0D02*
X22860000Y50165000D01*
X20320000Y50800000D02*
X20320000Y0D01*
X22860000Y50165000D02*
X22225000Y50800000D01*
%TO.C,J4*%
X22860000Y0D02*
X25400000Y0D01*
X25400000Y50165000D02*
X24765000Y50800000D01*
X22860000Y50800000D02*
X22860000Y0D01*
X24765000Y50800000D02*
X22860000Y50800000D01*
X25400000Y0D02*
X25400000Y50165000D01*
D17*
%TO.C,U15*%
X19620000Y27750000D02*
X19620000Y32150000D01*
X9420000Y32150000D02*
X8320000Y31050000D01*
X8320000Y31050000D02*
X8320000Y27750000D01*
X19620000Y32150000D02*
X9420000Y32150000D01*
X8320000Y27750000D02*
X19620000Y27750000D01*
D12*
%TO.C,U17*%
X11540000Y5520000D02*
X12540000Y6520000D01*
X12540000Y6520000D02*
X19540000Y6520000D01*
X11540000Y520000D02*
X11540000Y5520000D01*
X19540000Y6520000D02*
X19540000Y520000D01*
X19540000Y520000D02*
X11540000Y520000D01*
%TO.C,R1*%
X11320000Y43750000D02*
X11620000Y43750000D01*
X11620000Y43750000D02*
X11620000Y44350000D01*
X11320000Y44350000D02*
X11320000Y43750000D01*
X11620000Y44350000D02*
X11320000Y44350000D01*
%TO.C,R13*%
X11350000Y36300000D02*
X11050000Y36300000D01*
X11050000Y36300000D02*
X11050000Y35700000D01*
X11050000Y35700000D02*
X11350000Y35700000D01*
X11350000Y35700000D02*
X11350000Y36300000D01*
%TO.C,C61*%
X19290000Y39760000D02*
X19590000Y39760000D01*
X19590000Y39760000D02*
X19590000Y40360000D01*
X19290000Y40360000D02*
X19290000Y39760000D01*
X19590000Y40360000D02*
X19290000Y40360000D01*
%TO.C,R6*%
X8350000Y38740000D02*
X8650000Y38740000D01*
X8650000Y39340000D02*
X8350000Y39340000D01*
X8350000Y39340000D02*
X8350000Y38740000D01*
X8650000Y38740000D02*
X8650000Y39340000D01*
%TO.C,R7*%
X8650000Y37060000D02*
X8650000Y37660000D01*
X8650000Y37660000D02*
X8350000Y37660000D01*
X8350000Y37060000D02*
X8650000Y37060000D01*
X8350000Y37660000D02*
X8350000Y37060000D01*
%TO.C,C41*%
X17290000Y41200000D02*
X17290000Y41800000D01*
X16990000Y41800000D02*
X16990000Y41200000D01*
X16990000Y41200000D02*
X17290000Y41200000D01*
X17290000Y41800000D02*
X16990000Y41800000D01*
%TO.C,U12*%
X18790000Y42000000D02*
X18790000Y41000000D01*
X17790000Y41250000D02*
X17790000Y42000000D01*
X17790000Y41250000D02*
X18040000Y41000000D01*
X18790000Y41000000D02*
X18040000Y41000000D01*
X17790000Y42000000D02*
X18790000Y42000000D01*
%TO.C,C63*%
X18190000Y36160000D02*
X17890000Y36160000D01*
X18190000Y35560000D02*
X18190000Y36160000D01*
X17890000Y36160000D02*
X17890000Y35560000D01*
X17890000Y35560000D02*
X18190000Y35560000D01*
%TO.C,C65*%
X16590000Y41200000D02*
X16590000Y41800000D01*
X16290000Y41200000D02*
X16590000Y41200000D01*
X16290000Y41800000D02*
X16290000Y41200000D01*
X16590000Y41800000D02*
X16290000Y41800000D01*
%TO.C,U3*%
X11550000Y40050000D02*
X12200000Y39400000D01*
X9600000Y37450000D02*
X9600000Y40050000D01*
X12200000Y39400000D02*
X12200000Y37450000D01*
X12200000Y37450000D02*
X9600000Y37450000D01*
X9600000Y40050000D02*
X11550000Y40050000D01*
%TO.C,C8*%
X10710000Y41200000D02*
X11010000Y41200000D01*
X10710000Y41800000D02*
X10710000Y41200000D01*
X11010000Y41800000D02*
X10710000Y41800000D01*
X11010000Y41200000D02*
X11010000Y41800000D01*
%TO.C,C62*%
X19590000Y38960000D02*
X19290000Y38960000D01*
X19590000Y38360000D02*
X19590000Y38960000D01*
X19290000Y38360000D02*
X19590000Y38360000D01*
X19290000Y38960000D02*
X19290000Y38360000D01*
%TO.C,U19*%
X15470000Y37180000D02*
X18470000Y37180000D01*
X18470000Y37180000D02*
X18470000Y40180000D01*
X15470000Y39430000D02*
X15470000Y37180000D01*
X18470000Y40180000D02*
X16220000Y40180000D01*
X16220000Y40180000D02*
X15470000Y39430000D01*
%TO.C,C64*%
X17190000Y35560000D02*
X17490000Y35560000D01*
X17190000Y36160000D02*
X17190000Y35560000D01*
X17490000Y36160000D02*
X17190000Y36160000D01*
X17490000Y35560000D02*
X17490000Y36160000D01*
%TO.C,U1*%
X15370000Y41660000D02*
X14870000Y41160000D01*
X12570000Y43160000D02*
X15370000Y43160000D01*
X14870000Y41160000D02*
X12570000Y41160000D01*
X12570000Y41160000D02*
X12570000Y43160000D01*
X15370000Y43160000D02*
X15370000Y41660000D01*
%TO.C,D2*%
X12060000Y46770000D02*
X12660000Y47370000D01*
X13660000Y45770000D02*
X12060000Y45770000D01*
X13660000Y47370000D02*
X13660000Y45770000D01*
X12660000Y47370000D02*
X13660000Y47370000D01*
X12060000Y45770000D02*
X12060000Y46770000D01*
%TO.C,J3*%
X0Y0D02*
X2540000Y0D01*
X1905000Y50800000D02*
X0Y50800000D01*
X2540000Y0D02*
X2540000Y50165000D01*
X0Y50800000D02*
X0Y0D01*
X2540000Y50165000D02*
X1905000Y50800000D01*
%TO.C,J5*%
X2540000Y50800000D02*
X2540000Y0D01*
X2540000Y0D02*
X5080000Y0D01*
X5080000Y0D02*
X5080000Y50165000D01*
X5080000Y50165000D02*
X4445000Y50800000D01*
X4445000Y50800000D02*
X2540000Y50800000D01*
%TO.C,C55*%
X14660000Y7270000D02*
X14060000Y7270000D01*
X14660000Y6970000D02*
X14660000Y7270000D01*
X14060000Y7270000D02*
X14060000Y6970000D01*
X14060000Y6970000D02*
X14660000Y6970000D01*
%TO.C,C38*%
X19290000Y41200000D02*
X19590000Y41200000D01*
X19590000Y41800000D02*
X19290000Y41800000D01*
X19290000Y41800000D02*
X19290000Y41200000D01*
X19590000Y41200000D02*
X19590000Y41800000D01*
%TO.C,C57*%
X16740000Y7270000D02*
X16740000Y6970000D01*
X16740000Y6970000D02*
X17340000Y6970000D01*
X17340000Y6970000D02*
X17340000Y7270000D01*
X17340000Y7270000D02*
X16740000Y7270000D01*
D17*
%TO.C,U16*%
X18520000Y9450000D02*
X19620000Y10550000D01*
X8320000Y13850000D02*
X8320000Y9450000D01*
X19620000Y13850000D02*
X8320000Y13850000D01*
X8320000Y9450000D02*
X18520000Y9450000D01*
X19620000Y10550000D02*
X19620000Y13850000D01*
D12*
%TO.C,C2*%
X8650000Y21250000D02*
X8650000Y21850000D01*
X8350000Y21850000D02*
X8350000Y21250000D01*
X8650000Y21850000D02*
X8350000Y21850000D01*
X8350000Y21250000D02*
X8650000Y21250000D01*
%TO.C,C1*%
X9050000Y21250000D02*
X9350000Y21250000D01*
X9350000Y21850000D02*
X9050000Y21850000D01*
X9050000Y21850000D02*
X9050000Y21250000D01*
X9350000Y21250000D02*
X9350000Y21850000D01*
%TO.C,R16*%
X13260000Y6970000D02*
X13260000Y7270000D01*
X12660000Y6970000D02*
X13260000Y6970000D01*
X13260000Y7270000D02*
X12660000Y7270000D01*
X12660000Y7270000D02*
X12660000Y6970000D01*
%TO.C,C5*%
X17770000Y23500000D02*
X17170000Y23500000D01*
X17770000Y23200000D02*
X17770000Y23500000D01*
X17170000Y23500000D02*
X17170000Y23200000D01*
X17170000Y23200000D02*
X17770000Y23200000D01*
%TO.C,R8*%
X17170000Y24600000D02*
X17770000Y24600000D01*
X17770000Y24900000D02*
X17170000Y24900000D01*
X17770000Y24600000D02*
X17770000Y24900000D01*
X17170000Y24900000D02*
X17170000Y24600000D01*
%TO.C,C25*%
X15770000Y22800000D02*
X15770000Y22500000D01*
X16370000Y22500000D02*
X16370000Y22800000D01*
X16370000Y22800000D02*
X15770000Y22800000D01*
X15770000Y22500000D02*
X16370000Y22500000D01*
%TO.C,C16*%
X10170000Y22800000D02*
X10170000Y22500000D01*
X10170000Y22500000D02*
X10770000Y22500000D01*
X10770000Y22500000D02*
X10770000Y22800000D01*
X10770000Y22800000D02*
X10170000Y22800000D01*
%TO.C,C58*%
X12170000Y17000000D02*
X11570000Y17000000D01*
X11570000Y16700000D02*
X12170000Y16700000D01*
X12170000Y16700000D02*
X12170000Y17000000D01*
X11570000Y17000000D02*
X11570000Y16700000D01*
%TO.C,R22*%
X10170000Y18400000D02*
X10170000Y18100000D01*
X10770000Y18100000D02*
X10770000Y18400000D01*
X10770000Y18400000D02*
X10170000Y18400000D01*
X10170000Y18100000D02*
X10770000Y18100000D01*
%TO.C,C30*%
X12170000Y19100000D02*
X11570000Y19100000D01*
X11570000Y19100000D02*
X11570000Y18800000D01*
X12170000Y18800000D02*
X12170000Y19100000D01*
X11570000Y18800000D02*
X12170000Y18800000D01*
%TO.C,C66*%
X19590000Y36960000D02*
X19590000Y37560000D01*
X19290000Y36960000D02*
X19590000Y36960000D01*
X19290000Y37560000D02*
X19290000Y36960000D01*
X19590000Y37560000D02*
X19290000Y37560000D01*
%TO.C,C39*%
X11570000Y22100000D02*
X11570000Y21800000D01*
X11570000Y21800000D02*
X12170000Y21800000D01*
X12170000Y22100000D02*
X11570000Y22100000D01*
X12170000Y21800000D02*
X12170000Y22100000D01*
%TO.C,C37*%
X15770000Y21800000D02*
X16370000Y21800000D01*
X16370000Y21800000D02*
X16370000Y22100000D01*
X15770000Y22100000D02*
X15770000Y21800000D01*
X16370000Y22100000D02*
X15770000Y22100000D01*
%TO.C,C53*%
X14170000Y19600000D02*
X14170000Y19000000D01*
X14470000Y19600000D02*
X14170000Y19600000D01*
X14170000Y19000000D02*
X14470000Y19000000D01*
X14470000Y19000000D02*
X14470000Y19600000D01*
%TO.C,C24*%
X14470000Y24000000D02*
X14170000Y24000000D01*
X14170000Y23400000D02*
X14470000Y23400000D01*
X14170000Y24000000D02*
X14170000Y23400000D01*
X14470000Y23400000D02*
X14470000Y24000000D01*
%TO.C,R21*%
X9270000Y19600000D02*
X9270000Y19000000D01*
X9570000Y19600000D02*
X9270000Y19600000D01*
X9570000Y19000000D02*
X9570000Y19600000D01*
X9270000Y19000000D02*
X9570000Y19000000D01*
%TO.C,C36*%
X12170000Y19800000D02*
X11570000Y19800000D01*
X12170000Y19500000D02*
X12170000Y19800000D01*
X11570000Y19800000D02*
X11570000Y19500000D01*
X11570000Y19500000D02*
X12170000Y19500000D01*
%TO.C,U11*%
X16360000Y20300000D02*
X15610000Y20300000D01*
X15610000Y21300000D02*
X16610000Y21300000D01*
X16360000Y20300000D02*
X16610000Y20550000D01*
X16610000Y21300000D02*
X16610000Y20550000D01*
X15610000Y20300000D02*
X15610000Y21300000D01*
%TO.C,C59*%
X11570000Y17400000D02*
X12170000Y17400000D01*
X12170000Y17700000D02*
X11570000Y17700000D01*
X12170000Y17400000D02*
X12170000Y17700000D01*
X11570000Y17700000D02*
X11570000Y17400000D01*
%TO.C,C49*%
X13070000Y19000000D02*
X13070000Y19600000D01*
X12770000Y19000000D02*
X13070000Y19000000D01*
X12770000Y19600000D02*
X12770000Y19000000D01*
X13070000Y19600000D02*
X12770000Y19600000D01*
%TO.C,C52*%
X14170000Y22000000D02*
X14470000Y22000000D01*
X14470000Y22000000D02*
X14470000Y22600000D01*
X14470000Y22600000D02*
X14170000Y22600000D01*
X14170000Y22600000D02*
X14170000Y22000000D01*
%TO.C,C44*%
X17170000Y19800000D02*
X17170000Y19500000D01*
X17770000Y19500000D02*
X17770000Y19800000D01*
X17770000Y19800000D02*
X17170000Y19800000D01*
X17170000Y19500000D02*
X17770000Y19500000D01*
%TO.C,C17*%
X10170000Y21800000D02*
X10770000Y21800000D01*
X10170000Y22100000D02*
X10170000Y21800000D01*
X10770000Y22100000D02*
X10170000Y22100000D01*
X10770000Y21800000D02*
X10770000Y22100000D01*
%TO.C,R5*%
X18370000Y22700000D02*
X18670000Y22700000D01*
X18370000Y23300000D02*
X18370000Y22700000D01*
X18670000Y23300000D02*
X18370000Y23300000D01*
X18670000Y22700000D02*
X18670000Y23300000D01*
%TO.C,R9*%
X16370000Y24600000D02*
X16370000Y24900000D01*
X16370000Y24900000D02*
X15770000Y24900000D01*
X15770000Y24900000D02*
X15770000Y24600000D01*
X15770000Y24600000D02*
X16370000Y24600000D01*
%TO.C,C26*%
X13470000Y24000000D02*
X13470000Y23400000D01*
X13770000Y24000000D02*
X13470000Y24000000D01*
X13470000Y23400000D02*
X13770000Y23400000D01*
X13770000Y23400000D02*
X13770000Y24000000D01*
%TO.C,C29*%
X14170000Y17600000D02*
X14470000Y17600000D01*
X14170000Y18200000D02*
X14170000Y17600000D01*
X14470000Y17600000D02*
X14470000Y18200000D01*
X14470000Y18200000D02*
X14170000Y18200000D01*
%TO.C,R19*%
X11570000Y18100000D02*
X12170000Y18100000D01*
X11570000Y18400000D02*
X11570000Y18100000D01*
X12170000Y18400000D02*
X11570000Y18400000D01*
X12170000Y18100000D02*
X12170000Y18400000D01*
%TO.C,R10*%
X16270000Y24000000D02*
X16270000Y23400000D01*
X16570000Y24000000D02*
X16270000Y24000000D01*
X16270000Y23400000D02*
X16570000Y23400000D01*
X16570000Y23400000D02*
X16570000Y24000000D01*
%TO.C,C40*%
X15770000Y19800000D02*
X15770000Y19500000D01*
X16370000Y19800000D02*
X15770000Y19800000D01*
X15770000Y19500000D02*
X16370000Y19500000D01*
X16370000Y19500000D02*
X16370000Y19800000D01*
%TO.C,R18*%
X10970000Y17500000D02*
X10670000Y17500000D01*
X10970000Y16900000D02*
X10970000Y17500000D01*
X10670000Y17500000D02*
X10670000Y16900000D01*
X10670000Y16900000D02*
X10970000Y16900000D01*
%TO.C,C50*%
X15170000Y22000000D02*
X15170000Y22600000D01*
X14870000Y22600000D02*
X14870000Y22000000D01*
X15170000Y22600000D02*
X14870000Y22600000D01*
X14870000Y22000000D02*
X15170000Y22000000D01*
%TO.C,R12*%
X15670000Y24200000D02*
X15070000Y24200000D01*
X15670000Y23900000D02*
X15670000Y24200000D01*
X15070000Y24200000D02*
X15070000Y23900000D01*
X15070000Y23900000D02*
X15670000Y23900000D01*
%TO.C,C15*%
X10770000Y19100000D02*
X10170000Y19100000D01*
X10170000Y18800000D02*
X10770000Y18800000D01*
X10770000Y18800000D02*
X10770000Y19100000D01*
X10170000Y19100000D02*
X10170000Y18800000D01*
%TO.C,C20*%
X17170000Y20300000D02*
X17770000Y20300000D01*
X17170000Y20600000D02*
X17170000Y20300000D01*
X17770000Y20600000D02*
X17170000Y20600000D01*
X17770000Y20300000D02*
X17770000Y20600000D01*
%TO.C,C46*%
X17170000Y21800000D02*
X17770000Y21800000D01*
X17770000Y22100000D02*
X17170000Y22100000D01*
X17170000Y22100000D02*
X17170000Y21800000D01*
X17770000Y21800000D02*
X17770000Y22100000D01*
%TO.C,R2*%
X14470000Y24800000D02*
X14470000Y25400000D01*
X14470000Y25400000D02*
X14170000Y25400000D01*
X14170000Y25400000D02*
X14170000Y24800000D01*
X14170000Y24800000D02*
X14470000Y24800000D01*
%TO.C,C6*%
X17770000Y24200000D02*
X17170000Y24200000D01*
X17170000Y23900000D02*
X17770000Y23900000D01*
X17770000Y23900000D02*
X17770000Y24200000D01*
X17170000Y24200000D02*
X17170000Y23900000D01*
%TO.C,C43*%
X12770000Y22000000D02*
X13070000Y22000000D01*
X13070000Y22600000D02*
X12770000Y22600000D01*
X13070000Y22000000D02*
X13070000Y22600000D01*
X12770000Y22600000D02*
X12770000Y22000000D01*
%TO.C,U10*%
X11580000Y21300000D02*
X11330000Y21050000D01*
X11330000Y20300000D02*
X11330000Y21050000D01*
X12330000Y21300000D02*
X12330000Y20300000D01*
X12330000Y20300000D02*
X11330000Y20300000D01*
X11580000Y21300000D02*
X12330000Y21300000D01*
%TO.C,R11*%
X15670000Y23500000D02*
X15070000Y23500000D01*
X15670000Y23200000D02*
X15670000Y23500000D01*
X15070000Y23500000D02*
X15070000Y23200000D01*
X15070000Y23200000D02*
X15670000Y23200000D01*
%TO.C,C3*%
X9900000Y24520000D02*
X9900000Y25120000D01*
X9600000Y24520000D02*
X9900000Y24520000D01*
X9900000Y25120000D02*
X9600000Y25120000D01*
X9600000Y25120000D02*
X9600000Y24520000D01*
%TO.C,C28*%
X11570000Y22800000D02*
X11570000Y22500000D01*
X12170000Y22800000D02*
X11570000Y22800000D01*
X12170000Y22500000D02*
X12170000Y22800000D01*
X11570000Y22500000D02*
X12170000Y22500000D01*
%TO.C,C47*%
X13470000Y19600000D02*
X13470000Y19000000D01*
X13770000Y19600000D02*
X13470000Y19600000D01*
X13770000Y19000000D02*
X13770000Y19600000D01*
X13470000Y19000000D02*
X13770000Y19000000D01*
%TO.C,R4*%
X18670000Y24100000D02*
X18670000Y24700000D01*
X18370000Y24100000D02*
X18670000Y24100000D01*
X18670000Y24700000D02*
X18370000Y24700000D01*
X18370000Y24700000D02*
X18370000Y24100000D01*
%TO.C,C14*%
X10770000Y19500000D02*
X10770000Y19800000D01*
X10770000Y19800000D02*
X10170000Y19800000D01*
X10170000Y19500000D02*
X10770000Y19500000D01*
X10170000Y19800000D02*
X10170000Y19500000D01*
%TO.C,C22*%
X17770000Y21300000D02*
X17170000Y21300000D01*
X17170000Y21000000D02*
X17770000Y21000000D01*
X17170000Y21300000D02*
X17170000Y21000000D01*
X17770000Y21000000D02*
X17770000Y21300000D01*
%TO.C,R3*%
X14870000Y25400000D02*
X14870000Y24800000D01*
X14870000Y24800000D02*
X15170000Y24800000D01*
X15170000Y25400000D02*
X14870000Y25400000D01*
X15170000Y24800000D02*
X15170000Y25400000D01*
%TO.C,C45*%
X13770000Y22600000D02*
X13470000Y22600000D01*
X13470000Y22600000D02*
X13470000Y22000000D01*
X13470000Y22000000D02*
X13770000Y22000000D01*
X13770000Y22000000D02*
X13770000Y22600000D01*
%TO.C,C42*%
X17770000Y19100000D02*
X17170000Y19100000D01*
X17770000Y18800000D02*
X17770000Y19100000D01*
X17170000Y19100000D02*
X17170000Y18800000D01*
X17170000Y18800000D02*
X17770000Y18800000D01*
%TO.C,C23*%
X10770000Y20300000D02*
X10770000Y20600000D01*
X10770000Y20600000D02*
X10170000Y20600000D01*
X10170000Y20300000D02*
X10770000Y20300000D01*
X10170000Y20600000D02*
X10170000Y20300000D01*
%TO.C,C51*%
X15170000Y19000000D02*
X15170000Y19600000D01*
X14870000Y19000000D02*
X15170000Y19000000D01*
X14870000Y19600000D02*
X14870000Y19000000D01*
X15170000Y19600000D02*
X14870000Y19600000D01*
%TO.C,C4*%
X9200000Y25120000D02*
X8900000Y25120000D01*
X8900000Y25120000D02*
X8900000Y24520000D01*
X9200000Y24520000D02*
X9200000Y25120000D01*
X8900000Y24520000D02*
X9200000Y24520000D01*
%TO.C,C48*%
X17770000Y22500000D02*
X17770000Y22800000D01*
X17170000Y22500000D02*
X17770000Y22500000D01*
X17770000Y22800000D02*
X17170000Y22800000D01*
X17170000Y22800000D02*
X17170000Y22500000D01*
%TO.C,R20*%
X10270000Y16900000D02*
X10270000Y17500000D01*
X9970000Y17500000D02*
X9970000Y16900000D01*
X10270000Y17500000D02*
X9970000Y17500000D01*
X9970000Y16900000D02*
X10270000Y16900000D01*
%TO.C,C31*%
X13470000Y17600000D02*
X13770000Y17600000D01*
X13770000Y18200000D02*
X13470000Y18200000D01*
X13470000Y18200000D02*
X13470000Y17600000D01*
X13770000Y17600000D02*
X13770000Y18200000D01*
%TO.C,C21*%
X10170000Y21300000D02*
X10170000Y21000000D01*
X10770000Y21000000D02*
X10770000Y21300000D01*
X10770000Y21300000D02*
X10170000Y21300000D01*
X10170000Y21000000D02*
X10770000Y21000000D01*
%TO.C,C27*%
X16370000Y19100000D02*
X15770000Y19100000D01*
X15770000Y19100000D02*
X15770000Y18800000D01*
X16370000Y18800000D02*
X16370000Y19100000D01*
X15770000Y18800000D02*
X16370000Y18800000D01*
%TO.C,C10*%
X8650000Y40420000D02*
X8650000Y41020000D01*
X8350000Y41020000D02*
X8350000Y40420000D01*
X8350000Y40420000D02*
X8650000Y40420000D01*
X8650000Y41020000D02*
X8350000Y41020000D01*
%TO.C,C60*%
X14450000Y39630000D02*
X13850000Y39630000D01*
X13850000Y39330000D02*
X14450000Y39330000D01*
X13850000Y39630000D02*
X13850000Y39330000D01*
X14450000Y39330000D02*
X14450000Y39630000D01*
%TO.C,C9*%
X13350000Y38930000D02*
X13350000Y38630000D01*
X13950000Y38930000D02*
X13350000Y38930000D01*
X13950000Y38630000D02*
X13950000Y38930000D01*
X13350000Y38630000D02*
X13950000Y38630000D01*
%TO.C,C7*%
X13350000Y37930000D02*
X13950000Y37930000D01*
X13950000Y37930000D02*
X13950000Y38230000D01*
X13350000Y38230000D02*
X13350000Y37930000D01*
X13950000Y38230000D02*
X13350000Y38230000D01*
%TO.C,C67*%
X18890000Y35560000D02*
X18890000Y36160000D01*
X18890000Y36160000D02*
X18590000Y36160000D01*
X18590000Y36160000D02*
X18590000Y35560000D01*
X18590000Y35560000D02*
X18890000Y35560000D01*
%TO.C,R14*%
X10650000Y35700000D02*
X10650000Y36300000D01*
X10350000Y36300000D02*
X10350000Y35700000D01*
X10350000Y35700000D02*
X10650000Y35700000D01*
X10650000Y36300000D02*
X10350000Y36300000D01*
%TO.C,Q1*%
X12020000Y41190000D02*
X12020000Y42010000D01*
X11400000Y42010000D02*
X11400000Y40990000D01*
X12020000Y42010000D02*
X11400000Y42010000D01*
X11400000Y40990000D02*
X11820000Y40990000D01*
X12020000Y41190000D02*
X11820000Y40990000D01*
%TO.C,D3*%
X12070000Y44820000D02*
X15870000Y44820000D01*
X12070000Y43820000D02*
X12070000Y44820000D01*
X15870000Y44820000D02*
X15870000Y44320000D01*
X15870000Y44320000D02*
X15370000Y43820000D01*
X15370000Y43820000D02*
X12070000Y43820000D01*
%TO.C,U2*%
X14410000Y46020000D02*
X14410000Y47470000D01*
X15810000Y47470000D02*
X15810000Y45670000D01*
X14760000Y45670000D02*
X14410000Y46020000D01*
X15810000Y45670000D02*
X14760000Y45670000D01*
X14410000Y47470000D02*
X15810000Y47470000D01*
%TD*%
M02*
